{"glyphs":{"0":{"ha":244,"x_min":0,"x_max":0,"o":"m 182 1026 l 182 936 b 178 931 182 933 181 931 b 172 932 176 930 174 930 l 63 1040 b 50 1043 59 1044 55 1045 l 35 1038 b 28 1026 30 1035 28 1031 l 28 -193 b 36 -200 28 -198 31 -200 l 54 -200 b 63 -193 60 -200 63 -198 l 63 -103 b 66 -97 63 -100 64 -98 b 72 -99 68 -96 70 -97 l 182 -207 b 194 -210 186 -211 190 -212 l 210 -204 b 217 -193 214 -201 217 -198 l 217 1026 b 210 1033 217 1031 214 1033 l 190 1033 b 182 1026 185 1033 182 1031 z m 63 -35 l 63 978 b 66 983 63 981 64 982 b 72 982 68 984 70 984 l 179 876 b 182 868 181 874 182 871 l 182 -144 b 178 -150 182 -147 181 -149 b 172 -149 176 -151 174 -150 l 65 -43 b 63 -35 63 -40 63 -37 z "},"1":{"ha":156,"x_min":0,"x_max":0,"o":"m 94 1027 l 93 962 b 84 933 93 952 90 943 b 62 910 78 924 71 916 b 35 900 53 904 44 901 b 28 892 30 899 28 897 l 28 873 b 36 865 28 867 31 865 b 84 882 54 867 70 872 b 90 883 86 884 88 884 b 94 878 92 882 94 880 l 94 -192 b 101 -200 94 -198 96 -200 l 121 -200 b 128 -192 126 -200 128 -198 l 128 965 l 128 1027 b 121 1034 128 1032 126 1034 l 101 1034 b 94 1027 96 1034 94 1032 z "},"2":{"ha":244,"x_min":0,"x_max":0,"o":"m 63 904 l 63 1026 b 54 1033 63 1031 60 1033 l 36 1033 b 28 1026 31 1033 28 1031 l 28 883 b 31 878 28 881 29 879 l 43 864 b 49 863 45 863 47 863 b 172 918 98 863 139 882 b 178 919 174 920 176 920 b 182 914 181 919 182 917 l 182 879 b 143 784 182 842 169 810 b 49 743 117 758 86 744 b 43 740 46 743 44 742 l 31 728 b 28 722 29 726 28 724 l 28 -193 b 36 -200 28 -198 31 -200 l 56 -200 b 63 -193 60 -200 63 -198 b 97 -110 64 -162 76 -134 b 175 -65 119 -86 144 -71 b 182 -72 180 -65 182 -68 l 182 -193 b 190 -200 182 -198 185 -200 l 210 -200 b 217 -193 214 -200 217 -198 l 217 39 b 210 47 217 44 214 47 l 190 47 b 182 39 185 47 182 44 l 182 -24 b 175 -31 182 -27 180 -30 b 72 -85 134 -36 100 -54 b 66 -86 70 -87 68 -87 b 63 -81 64 -85 63 -83 l 63 701 b 69 710 63 706 65 709 b 174 767 111 715 146 734 b 217 879 203 799 217 837 l 217 1026 b 210 1033 217 1031 214 1033 l 190 1033 b 182 1026 185 1033 182 1031 b 147 943 180 995 169 967 b 69 899 126 919 100 904 b 63 904 65 898 63 900 z "},"3":{"ha":244,"x_min":0,"x_max":0,"o":"m 63 904 l 63 1026 b 56 1033 63 1031 60 1033 l 36 1033 b 28 1026 31 1033 28 1031 l 28 883 b 31 878 28 881 29 879 l 43 864 b 49 863 45 863 47 863 b 172 918 98 863 139 882 b 178 919 174 920 176 920 b 182 914 181 919 182 917 l 182 879 b 144 785 182 843 169 812 b 53 743 119 759 89 745 b 46 735 48 743 46 740 l 46 715 b 53 708 46 711 48 708 b 144 665 89 706 119 691 b 182 571 169 638 182 607 l 182 -81 b 178 -86 182 -83 181 -85 b 172 -85 176 -87 174 -87 b 69 -31 144 -54 110 -36 b 63 -24 65 -30 63 -27 l 63 39 b 54 47 63 44 60 47 l 36 47 b 28 39 31 47 28 44 l 28 -193 b 36 -200 28 -198 31 -200 l 54 -200 b 63 -193 60 -200 63 -198 l 63 -71 b 69 -65 63 -67 65 -65 b 147 -110 100 -71 126 -86 b 182 -193 169 -134 180 -162 b 190 -200 182 -198 185 -200 l 210 -200 b 217 -193 214 -200 217 -198 l 217 571 b 206 630 217 591 213 611 b 177 681 199 649 190 666 b 133 718 165 697 150 709 b 129 725 131 720 129 722 b 133 732 129 728 131 730 b 194 794 158 748 178 769 b 217 879 209 820 217 849 l 217 1026 b 210 1033 217 1031 214 1033 l 190 1033 b 182 1026 185 1033 182 1031 b 148 943 180 995 169 967 b 69 899 127 919 101 904 b 63 904 65 898 63 900 z "},"4":{"ha":244,"x_min":0,"x_max":0,"o":"m 172 840 b 69 896 144 871 110 889 b 63 903 65 896 63 898 l 63 1026 b 54 1033 63 1031 60 1033 l 36 1033 b 28 1026 31 1033 28 1031 l 28 897 l 28 863 l 28 794 b 36 786 28 789 31 786 l 54 786 b 63 794 60 786 63 789 l 63 854 b 69 860 63 859 65 861 b 127 835 91 856 110 848 b 167 788 144 823 158 807 b 182 725 177 768 182 747 l 182 -193 b 190 -200 182 -198 185 -200 l 210 -200 b 217 -193 214 -200 217 -198 l 217 725 l 217 1026 b 210 1033 217 1031 214 1033 l 190 1033 b 182 1026 185 1033 182 1031 l 182 844 b 178 839 182 842 181 840 b 172 840 176 838 174 838 z "},"5":{"ha":244,"x_min":0,"x_max":0,"o":"m 175 899 b 119 923 155 902 136 910 b 79 969 103 935 89 951 b 63 1028 69 988 63 1007 b 57 1033 63 1031 61 1033 l 33 1033 b 28 1028 30 1033 28 1031 l 28 879 b 71 767 28 837 42 799 b 178 710 100 734 135 715 b 182 704 181 709 182 707 l 182 -81 b 178 -86 182 -83 181 -85 b 172 -85 176 -87 174 -87 b 68 -31 142 -54 107 -36 b 63 -25 64 -31 63 -29 l 63 40 b 57 47 63 45 61 47 l 33 47 b 28 40 30 47 28 45 l 28 -194 l 33 -200 l 57 -200 b 63 -194 61 -200 63 -198 l 63 -72 b 69 -65 63 -68 65 -65 b 149 -110 96 -65 123 -80 b 182 -194 170 -135 181 -163 b 188 -200 182 -198 184 -200 l 211 -200 b 217 -194 215 -200 217 -198 l 217 721 b 214 729 217 725 216 727 l 203 739 b 194 743 200 742 197 743 b 101 784 158 744 127 758 b 63 879 75 810 63 842 l 63 914 b 66 919 63 917 64 919 b 72 918 68 920 70 920 b 194 863 108 882 149 863 b 203 865 198 863 201 863 l 214 876 b 217 885 216 878 217 881 l 217 1028 b 211 1033 217 1031 215 1033 l 188 1033 b 182 1028 184 1033 182 1031 l 182 904 b 175 899 182 900 180 898 z "},"6":{"ha":244,"x_min":0,"x_max":0,"o":"m 28 749 l 28 703 l 28 -193 b 35 -200 28 -198 30 -200 l 54 -200 b 63 -193 60 -200 63 -198 b 97 -110 64 -162 76 -134 b 175 -65 119 -86 144 -71 b 182 -72 180 -65 182 -68 l 182 -193 b 189 -200 182 -198 184 -200 l 208 -200 b 217 -193 214 -200 217 -198 l 217 721 b 213 729 217 724 215 726 l 203 739 b 194 743 200 742 197 743 l 68 743 b 63 749 64 743 63 745 l 63 914 b 66 919 63 917 64 919 b 72 918 68 920 70 920 b 194 863 105 882 145 863 b 203 865 197 863 200 863 l 213 876 b 217 885 215 878 217 881 l 217 1026 b 208 1033 217 1031 214 1033 l 189 1033 b 182 1026 184 1033 182 1031 l 182 904 b 175 899 182 900 180 898 b 97 943 144 904 119 919 b 63 1026 76 967 64 995 b 54 1033 63 1031 60 1033 l 35 1033 b 28 1026 30 1033 28 1031 z m 182 700 l 182 -24 b 175 -31 182 -27 180 -30 b 118 -49 155 -33 136 -39 b 72 -85 100 -58 85 -70 b 66 -86 70 -87 68 -87 b 63 -81 64 -85 63 -83 l 63 703 b 68 708 63 706 64 708 l 174 708 b 182 700 179 708 182 706 z "},"7":{"ha":244,"x_min":0,"x_max":0,"o":"m 63 904 l 63 1026 b 54 1033 63 1031 60 1033 l 36 1033 b 28 1026 31 1033 28 1031 l 28 885 b 31 876 28 881 29 878 l 42 865 b 50 863 44 863 47 863 b 172 918 99 863 140 882 b 178 919 174 920 176 920 b 182 914 181 919 182 917 l 182 879 b 143 784 182 842 169 810 b 50 743 117 758 86 744 b 42 739 46 743 44 742 l 31 729 b 28 721 29 726 28 724 l 28 -193 b 36 -200 28 -198 31 -200 l 54 -200 b 63 -193 60 -200 63 -198 l 63 704 b 68 710 63 707 64 709 b 174 767 110 715 145 734 b 217 879 202 799 217 837 l 217 1026 b 210 1033 217 1031 214 1033 l 190 1033 b 182 1026 185 1033 182 1031 b 147 943 180 995 169 967 b 69 899 126 919 100 904 b 63 904 65 898 63 900 z "},"8":{"ha":244,"x_min":0,"x_max":0,"o":"m 175 899 b 97 943 144 904 119 919 b 63 1026 76 967 64 995 b 56 1033 63 1031 60 1033 l 36 1033 b 28 1026 31 1033 28 1031 l 28 879 b 86 750 28 827 47 784 b 86 739 91 746 91 743 b 28 610 47 705 28 662 l 28 -46 l 28 -65 l 28 -193 b 36 -200 28 -198 31 -200 l 54 -200 b 63 -193 60 -200 63 -198 l 63 -71 b 69 -65 63 -66 65 -64 b 147 -110 100 -71 126 -86 b 182 -193 169 -134 180 -162 b 190 -200 182 -198 185 -200 l 210 -200 b 217 -193 214 -200 217 -198 l 217 610 b 158 739 217 662 197 705 b 158 750 154 743 154 746 b 217 879 197 784 217 827 l 217 1026 b 210 1033 217 1031 214 1033 l 190 1033 b 182 1026 185 1033 182 1031 l 182 904 b 175 899 182 900 180 898 z m 182 610 l 182 -76 b 177 -83 182 -80 180 -82 b 169 -82 174 -84 171 -84 b 69 -31 142 -53 108 -36 b 63 -24 65 -30 63 -27 l 63 610 b 118 719 63 655 81 692 b 126 719 121 721 124 721 b 182 610 163 692 182 655 z m 126 769 b 118 769 124 768 121 768 b 63 879 81 797 63 834 l 63 914 b 66 919 63 917 64 919 b 72 918 68 920 70 920 b 174 864 100 888 134 870 b 181 856 179 863 181 860 b 126 769 174 820 156 792 z "},"9":{"ha":244,"x_min":0,"x_max":0,"o":"m 63 904 l 63 1026 b 54 1033 63 1031 60 1033 l 36 1033 b 28 1026 31 1033 28 1031 l 28 897 l 28 879 l 28 869 b 36 863 28 865 31 863 l 44 863 b 142 822 82 863 115 849 b 182 725 169 795 182 763 l 182 -193 b 190 -200 182 -198 185 -200 l 210 -200 b 217 -193 214 -200 217 -198 l 217 1026 b 210 1033 217 1031 214 1033 l 190 1033 b 182 1026 185 1033 182 1031 b 147 943 180 995 169 967 b 69 899 126 919 100 904 b 63 904 65 898 63 900 z m 129 885 b 172 918 146 894 160 905 b 178 919 174 920 176 920 b 182 914 181 919 182 917 l 182 844 b 178 839 182 842 181 840 b 172 840 176 838 174 838 b 129 875 160 854 146 866 b 126 880 127 876 126 878 b 129 885 126 882 127 884 z "},"\u0000":{"ha":244,"x_min":0,"x_max":0,"o":""},"\u0001":{"ha":244,"x_min":0,"x_max":0,"o":""},"\u0002":{"ha":244,"x_min":0,"x_max":0,"o":""},"\u0003":{"ha":244,"x_min":0,"x_max":0,"o":""},"\u0004":{"ha":244,"x_min":0,"x_max":0,"o":""},"\u0005":{"ha":244,"x_min":0,"x_max":0,"o":""},"\u0006":{"ha":244,"x_min":0,"x_max":0,"o":""},"\u0007":{"ha":244,"x_min":0,"x_max":0,"o":""},"\b":{"ha":244,"x_min":0,"x_max":0,"o":""},"\t":{"ha":244,"x_min":0,"x_max":0,"o":""},"\n":{"ha":244,"x_min":0,"x_max":0,"o":""},"\u000b":{"ha":244,"x_min":0,"x_max":0,"o":""},"\f":{"ha":244,"x_min":0,"x_max":0,"o":""},"\r":{"ha":244,"x_min":0,"x_max":0,"o":""},"\u000e":{"ha":244,"x_min":0,"x_max":0,"o":""},"\u000f":{"ha":244,"x_min":0,"x_max":0,"o":""},"\u0010":{"ha":244,"x_min":0,"x_max":0,"o":""},"\u0011":{"ha":244,"x_min":0,"x_max":0,"o":""},"\u0012":{"ha":244,"x_min":0,"x_max":0,"o":""},"\u0013":{"ha":244,"x_min":0,"x_max":0,"o":""},"\u0014":{"ha":244,"x_min":0,"x_max":0,"o":""},"\u0015":{"ha":244,"x_min":0,"x_max":0,"o":""},"\u0016":{"ha":244,"x_min":0,"x_max":0,"o":""},"\u0017":{"ha":244,"x_min":0,"x_max":0,"o":""},"\u0018":{"ha":244,"x_min":0,"x_max":0,"o":""},"\u0019":{"ha":244,"x_min":0,"x_max":0,"o":""},"\u001a":{"ha":244,"x_min":0,"x_max":0,"o":""},"\u001b":{"ha":244,"x_min":0,"x_max":0,"o":""},"\u001c":{"ha":244,"x_min":0,"x_max":0,"o":""},"\u001d":{"ha":244,"x_min":0,"x_max":0,"o":""},"\u001e":{"ha":244,"x_min":0,"x_max":0,"o":""},"\u001f":{"ha":244,"x_min":0,"x_max":0,"o":""}," ":{"ha":139,"x_min":0,"x_max":0,"o":""},"!":{"ha":214,"x_min":0,"x_max":0,"o":"m 125 -21 l 125 1026 b 117 1033 125 1031 122 1033 l 97 1033 b 90 1026 93 1033 90 1031 l 90 -21 b 97 -29 90 -26 93 -29 l 117 -29 b 125 -21 122 -29 125 -26 z m 192 -44 l 178 -31 b 167 -31 174 -27 170 -27 l 113 -85 b 101 -85 109 -88 105 -88 l 47 -31 b 36 -31 44 -27 40 -27 l 24 -44 b 24 -56 20 -48 20 -52 l 76 -108 b 76 -119 80 -112 80 -116 l 24 -174 b 24 -185 20 -177 20 -181 l 36 -199 b 47 -199 40 -202 44 -202 l 101 -144 b 113 -144 105 -141 109 -141 l 167 -199 b 178 -199 170 -202 174 -202 l 192 -185 b 192 -174 194 -181 194 -177 l 138 -119 b 138 -108 134 -116 134 -112 l 192 -56 b 192 -44 194 -52 194 -48 z "},"\"":{"ha":167,"x_min":0,"x_max":0,"o":"m 106 1022 l 106 892 b 117 879 106 883 109 879 l 128 879 b 140 892 136 879 140 883 l 140 1022 b 128 1033 140 1030 136 1033 l 117 1033 b 106 1022 109 1033 106 1030 z m 39 879 l 51 879 b 63 892 59 879 63 883 l 63 1022 b 51 1033 63 1030 59 1033 l 39 1033 b 28 1022 31 1033 28 1030 l 28 892 b 39 879 28 883 31 879 z "},"#":{"ha":244,"x_min":0,"x_max":0,"o":"m 210 417 b 217 424 214 417 217 419 l 217 443 b 210 451 217 449 214 451 l 186 451 b 178 458 181 451 178 454 l 178 482 b 171 489 178 487 175 489 l 151 489 b 143 482 146 489 143 487 l 143 458 b 136 451 143 454 141 451 l 108 451 b 101 458 104 451 101 454 l 101 482 b 93 489 101 487 99 489 l 74 489 b 67 482 69 489 67 487 l 67 458 b 58 451 67 454 64 451 l 36 451 b 28 443 31 451 28 449 l 28 424 b 36 417 28 419 31 417 l 58 417 b 67 408 64 417 67 414 l 67 382 b 58 374 67 376 64 374 l 36 374 b 28 365 31 374 28 371 l 28 347 b 36 339 28 342 31 339 l 58 339 b 67 331 64 339 67 336 l 67 308 b 74 300 67 303 69 300 l 93 300 b 101 308 99 300 101 303 l 101 331 b 108 339 101 336 104 339 l 136 339 b 143 331 141 339 143 336 l 143 308 b 151 300 143 303 146 300 l 171 300 b 178 308 175 300 178 303 l 178 331 b 186 339 178 336 181 339 l 210 339 b 217 347 214 339 217 342 l 217 365 b 210 374 217 371 214 374 l 186 374 b 178 382 181 374 178 376 l 178 408 b 186 417 178 414 181 417 z m 136 374 l 108 374 b 101 382 104 374 101 376 l 101 408 b 108 417 101 414 104 417 l 136 417 b 143 408 141 417 143 414 l 143 382 b 136 374 143 376 141 374 z "},"$":{"ha":244,"x_min":0,"x_max":0,"o":"m 63 692 l 63 725 b 103 822 63 763 76 795 b 200 863 130 849 162 863 l 210 863 b 217 869 214 863 217 865 l 217 889 b 210 897 217 894 214 897 l 207 897 b 161 916 189 897 174 903 b 142 963 148 928 142 944 l 142 1026 b 135 1033 142 1031 139 1033 l 115 1033 b 107 1026 110 1033 107 1031 l 107 963 b 133 894 107 937 116 914 b 131 882 138 890 137 886 b 56 820 100 869 75 848 b 28 725 37 792 28 760 l 28 581 b 36 572 28 575 31 572 l 56 572 b 63 581 60 572 63 575 b 97 663 64 612 76 639 b 175 706 119 686 144 700 b 182 700 180 706 182 705 l 182 108 b 142 11 182 70 169 38 b 44 -29 115 -16 82 -29 l 36 -29 b 28 -37 31 -29 28 -32 l 28 -56 b 36 -64 28 -61 31 -64 l 39 -64 b 65 -69 48 -64 57 -66 b 86 -83 74 -72 81 -77 b 100 -104 92 -89 96 -96 b 106 -129 104 -112 106 -121 l 106 -193 b 113 -200 106 -198 108 -200 l 132 -200 b 140 -193 138 -200 140 -198 l 140 -129 b 111 -60 140 -102 131 -79 b 113 -50 107 -55 108 -52 b 188 13 144 -36 169 -15 b 217 108 207 41 217 73 l 217 731 b 206 743 217 739 213 743 l 200 743 b 72 688 149 743 106 725 b 66 686 70 686 68 685 b 63 692 64 687 63 689 z "},"%":{"ha":244,"x_min":0,"x_max":0,"o":"m 36 -200 l 56 -200 b 64 -194 60 -200 63 -198 l 215 1025 b 208 1033 216 1031 214 1033 l 189 1033 b 181 1028 184 1033 181 1031 l 29 -192 b 36 -200 28 -197 31 -200 z m 54 1033 l 36 1033 b 28 1026 31 1033 28 1031 l 28 904 b 36 897 28 900 31 897 l 54 897 b 63 904 60 897 63 900 l 63 1026 b 54 1033 63 1031 60 1033 z m 190 -200 l 210 -200 b 217 -193 214 -200 217 -198 l 217 -71 b 210 -64 217 -66 214 -64 l 190 -64 b 182 -71 185 -64 182 -66 l 182 -193 b 190 -200 182 -198 185 -200 z "},"&":{"ha":256,"x_min":0,"x_max":0,"o":"m 210 783 l 190 783 b 182 775 185 783 182 781 l 182 750 b 175 744 182 745 180 744 b 94 791 143 750 116 766 b 63 879 73 816 63 846 l 63 914 b 66 919 63 917 64 919 b 72 918 68 920 70 920 b 194 863 106 882 146 863 b 203 865 198 863 201 863 l 214 876 b 217 885 216 878 217 881 l 217 1026 b 210 1033 217 1031 214 1033 l 190 1033 b 182 1026 185 1033 182 1031 l 182 904 b 175 899 182 900 180 899 b 97 943 144 904 119 919 b 63 1026 76 967 64 995 b 56 1033 63 1031 60 1033 l 36 1033 b 28 1026 31 1033 28 1031 l 28 879 b 51 794 28 849 35 820 b 113 732 66 769 87 748 b 115 725 114 730 115 728 b 113 718 115 722 114 720 b 51 656 87 703 66 683 b 28 571 35 630 28 601 l 28 -193 b 36 -200 28 -198 31 -200 l 56 -200 b 63 -193 60 -200 63 -198 b 97 -110 64 -162 76 -134 b 175 -65 119 -86 144 -71 b 182 -71 180 -64 182 -66 l 182 -193 b 190 -200 182 -198 185 -200 l 210 -200 b 217 -193 214 -200 217 -198 l 217 703 b 222 708 217 706 219 708 l 249 708 b 256 715 253 708 256 711 l 256 735 b 249 743 256 740 253 743 l 222 743 b 217 749 219 743 217 745 l 217 775 b 210 783 217 781 214 783 z m 72 -85 b 66 -86 70 -87 68 -87 b 63 -81 64 -85 63 -83 l 63 571 b 94 659 63 604 73 634 b 175 706 116 684 143 700 b 182 700 180 706 182 705 l 182 -24 b 175 -31 182 -27 180 -30 b 72 -85 134 -36 100 -54 z "},"'":{"ha":90,"x_min":0,"x_max":0,"o":"m 39 879 l 51 879 b 63 892 59 879 63 883 l 63 1022 b 51 1033 63 1030 59 1033 l 39 1033 b 28 1022 31 1033 28 1030 l 28 892 b 39 879 28 883 31 879 z "},"(":{"ha":226,"x_min":0,"x_max":0,"o":"m 28 863 l 28 -29 b 76 -147 28 -75 44 -114 b 192 -200 108 -181 146 -198 b 200 -193 197 -201 200 -199 l 200 -174 b 192 -165 200 -169 197 -166 b 100 -123 156 -163 125 -149 b 63 -29 75 -97 63 -65 l 63 863 b 100 956 63 899 75 930 b 192 999 125 983 156 997 b 200 1007 197 1000 200 1002 l 200 1026 b 192 1033 200 1032 197 1034 b 76 981 146 1031 108 1014 b 28 863 44 947 28 908 z "},")":{"ha":226,"x_min":0,"x_max":0,"o":"m 28 1026 l 28 1007 b 35 999 28 1001 30 999 b 127 956 71 997 102 983 b 165 863 153 930 165 899 l 165 -29 b 127 -123 165 -65 153 -97 b 35 -165 102 -149 71 -163 b 28 -174 30 -166 28 -169 l 28 -193 b 36 -200 28 -199 31 -201 b 152 -148 81 -198 120 -181 b 200 -29 184 -115 200 -75 l 200 863 b 152 981 200 908 184 947 b 36 1033 120 1014 81 1031 b 28 1026 31 1033 28 1031 z "},"*":{"ha":244,"x_min":0,"x_max":0,"o":"m 80 922 l 49 890 b 48 879 45 887 45 883 l 61 866 b 73 866 65 862 69 862 l 106 898 l 106 853 b 113 844 106 847 108 844 l 132 844 b 140 853 138 844 140 847 l 140 897 l 171 866 b 181 866 175 862 178 862 l 195 879 b 196 890 199 883 199 887 l 164 922 l 210 922 b 217 929 214 922 217 925 l 217 949 b 210 957 217 954 214 957 l 164 957 l 196 988 b 195 999 200 992 199 995 l 181 1013 b 171 1013 178 1016 175 1016 l 140 982 l 140 1026 b 132 1033 140 1031 138 1033 l 113 1033 b 106 1026 108 1033 106 1031 l 106 981 l 73 1013 b 61 1013 69 1017 65 1017 l 48 999 b 49 988 44 996 45 992 l 80 957 l 36 957 b 28 949 31 957 28 954 l 28 929 b 36 922 28 925 31 922 z "},"+":{"ha":244,"x_min":0,"x_max":0,"o":"m 140 413 l 140 482 b 132 489 140 487 138 489 l 113 489 b 106 482 108 489 106 487 l 106 413 l 36 413 b 28 404 31 413 28 410 l 28 385 b 36 378 28 380 31 378 l 106 378 l 106 308 b 113 300 106 303 108 300 l 132 300 b 140 308 138 300 140 303 l 140 378 l 210 378 b 217 385 214 378 217 380 l 217 404 b 210 413 217 410 214 413 z "},",":{"ha":63,"x_min":0,"x_max":0,"o":"m 11 -278 l 24 -278 b 35 -267 31 -278 35 -274 l 35 -135 b 24 -124 35 -127 31 -124 l 11 -124 b 0 -135 4 -124 0 -127 l 0 -267 b 11 -278 0 -274 4 -278 z "},"-":{"ha":244,"x_min":0,"x_max":0,"o":"m 210 378 b 217 385 214 378 217 380 l 217 404 b 210 413 217 410 214 413 l 36 413 b 28 404 31 413 28 410 l 28 385 b 36 378 28 380 31 378 z "},".":{"ha":90,"x_min":0,"x_max":0,"o":"m 54 -200 b 63 -193 60 -200 63 -198 l 63 -150 b 54 -143 63 -145 60 -143 l 36 -143 b 28 -150 31 -143 28 -145 l 28 -193 b 36 -200 28 -198 31 -200 z "},"/":{"ha":242,"x_min":0,"x_max":0,"o":"m 36 -200 l 56 -200 b 63 -194 59 -200 62 -198 l 215 1025 b 207 1033 216 1031 213 1033 l 188 1033 b 181 1028 183 1033 181 1031 l 28 -192 b 36 -200 27 -197 30 -200 z "},":":{"ha":90,"x_min":0,"x_max":0,"o":"m 54 300 b 63 307 60 300 63 302 l 63 350 b 54 358 63 356 60 358 l 36 358 b 28 350 31 358 28 356 l 28 307 b 36 300 28 302 31 300 z m 54 432 b 63 440 60 432 63 435 l 63 482 b 54 490 63 488 60 490 l 36 490 b 28 482 31 490 28 488 l 28 440 b 36 432 28 435 31 432 z "},";":{"ha":90,"x_min":0,"x_max":0,"o":"m 54 243 b 63 251 60 243 63 246 l 63 351 b 54 360 63 357 60 360 l 36 360 b 28 351 31 360 28 357 l 28 251 b 36 243 28 246 31 243 z m 54 432 b 63 440 60 432 63 435 l 63 482 b 54 490 63 488 60 490 l 36 490 b 28 482 31 490 28 488 l 28 440 b 36 432 28 435 31 432 z "},"<":{"ha":165,"x_min":0,"x_max":0,"o":"m 111 306 b 122 306 115 302 119 302 l 136 319 b 136 331 140 323 140 327 l 78 389 b 78 400 74 393 74 396 l 136 458 b 136 469 140 462 140 466 l 122 483 b 111 483 119 487 115 487 l 31 403 b 31 386 26 397 26 392 z "},"=":{"ha":244,"x_min":0,"x_max":0,"o":"m 210 419 b 217 426 214 419 217 422 l 217 446 b 210 454 217 451 214 454 l 36 454 b 28 446 31 454 28 451 l 28 426 b 36 419 28 422 31 419 z m 210 336 b 217 343 214 336 217 338 l 217 363 b 210 371 217 368 214 371 l 36 371 b 28 363 31 371 28 368 l 28 343 b 36 336 28 338 31 336 z "},">":{"ha":165,"x_min":0,"x_max":0,"o":"m 54 306 l 135 386 b 135 403 140 392 140 397 l 54 483 b 43 483 50 487 47 487 l 31 469 b 31 458 27 466 27 462 l 89 400 b 89 389 93 396 93 393 l 31 331 b 31 319 27 327 27 323 l 43 306 b 54 306 47 302 50 302 z "},"?":{"ha":231,"x_min":0,"x_max":0,"o":"m 56 904 l 56 1026 b 47 1033 56 1031 53 1033 l 29 1033 b 21 1026 24 1033 21 1031 l 21 885 b 24 876 21 881 22 878 l 35 865 b 43 863 38 863 40 863 b 165 918 92 863 133 882 b 172 919 167 920 169 920 b 175 914 174 919 175 917 l 175 879 b 138 785 175 843 163 812 b 46 743 113 759 82 745 b 39 735 41 743 39 740 l 39 715 b 46 708 39 711 41 708 b 83 694 60 706 72 702 b 99 665 93 686 99 676 l 99 -21 b 106 -29 99 -26 101 -29 l 125 -29 b 133 -21 131 -29 133 -26 l 133 665 b 113 714 133 684 126 700 b 114 726 107 719 107 723 b 183 789 143 740 166 761 b 210 879 201 817 210 847 l 210 1026 b 203 1033 210 1031 207 1033 l 183 1033 b 175 1026 178 1033 175 1031 b 140 943 173 995 162 967 b 63 899 119 919 93 904 b 56 904 58 898 56 900 z m 175 -31 l 121 -85 b 110 -85 117 -88 113 -88 l 56 -31 b 44 -31 52 -27 48 -27 l 32 -44 b 32 -56 28 -48 28 -52 l 85 -108 b 85 -119 88 -112 88 -116 l 32 -174 b 32 -185 28 -177 28 -181 l 44 -199 b 56 -199 48 -202 52 -202 l 110 -144 b 121 -144 113 -141 117 -141 l 175 -199 b 186 -199 179 -202 182 -202 l 200 -185 b 200 -174 203 -181 203 -177 l 146 -119 b 146 -108 142 -116 142 -112 l 200 -56 b 200 -44 203 -52 203 -48 l 186 -31 b 175 -31 182 -27 179 -27 z "},"@":{"ha":244,"x_min":0,"x_max":0,"o":"m 209 1034 l 190 1034 b 182 1027 184 1034 182 1031 b 148 943 182 997 170 969 b 69 899 126 919 100 904 b 63 905 65 898 63 900 l 63 1026 b 55 1034 63 1031 60 1034 l 35 1034 b 28 1026 30 1034 28 1031 l 28 884 b 31 876 28 881 29 878 l 42 866 b 50 862 44 864 47 862 b 172 918 96 861 137 879 b 178 920 174 920 176 921 b 182 915 181 919 182 917 l 182 747 b 177 741 182 743 180 742 b 101 712 150 738 125 728 b 47 651 78 696 60 675 b 28 571 34 626 28 600 l 28 -193 b 35 -201 28 -198 30 -200 l 55 -201 b 63 -193 60 -201 63 -198 b 97 -110 64 -162 76 -134 b 175 -66 118 -86 145 -71 b 182 -72 180 -65 182 -67 l 182 -193 b 190 -201 182 -198 185 -200 l 209 -201 b 217 -193 214 -201 217 -198 l 217 702 b 223 708 217 706 219 708 l 237 708 b 244 716 242 708 244 711 l 244 735 b 237 743 244 740 242 743 l 223 743 b 217 748 219 743 217 745 l 217 1026 b 209 1034 217 1031 214 1034 z m 73 -85 b 66 -87 71 -87 69 -88 b 63 -81 64 -86 63 -84 l 63 571 b 95 659 63 604 73 634 b 175 706 116 684 143 700 b 182 700 180 707 182 705 l 182 -23 b 175 -31 182 -27 180 -30 b 73 -85 135 -36 100 -55 z "},"A":{"ha":236,"x_min":0,"x_max":0,"o":"m 203 -6 l 201 -6 b 200 -4 200 -6 200 -5 l 135 1026 b 126 1035 135 1032 132 1035 l 111 1035 b 103 1026 106 1035 103 1032 l 21 -193 b 25 -201 21 -197 22 -200 l 42 -208 b 51 -207 45 -210 49 -210 l 165 -89 b 171 -87 166 -87 168 -87 b 175 -93 174 -88 175 -90 l 181 -193 b 189 -201 181 -199 184 -201 l 204 -201 b 211 -193 210 -201 212 -199 l 203 -53 b 206 -47 203 -51 204 -49 l 221 -31 b 221 -21 225 -27 225 -24 l 206 -6 b 203 -6 205 -5 204 -5 z m 56 -143 l 114 738 b 119 740 115 739 116 740 b 122 738 121 740 122 739 l 171 -35 b 169 -40 171 -37 170 -38 l 65 -147 b 59 -149 63 -149 61 -150 b 56 -143 57 -148 56 -146 z "},"B":{"ha":244,"x_min":0,"x_max":0,"o":"m 174 900 b 97 944 143 906 117 920 b 63 1026 76 967 64 995 b 56 1033 63 1031 60 1033 l 36 1033 b 28 1026 31 1033 28 1031 l 28 749 b 22 743 28 747 26 745 l 8 743 b 0 735 3 743 0 740 l 0 715 b 8 708 0 711 3 708 l 22 708 l 28 703 l 28 -193 b 36 -200 28 -198 31 -200 l 56 -200 b 63 -193 60 -200 63 -198 b 215 717 67 -116 118 187 b 214 726 216 720 216 724 l 203 739 b 194 743 201 742 198 743 l 71 743 b 65 750 66 743 64 745 b 112 830 71 781 86 808 b 200 863 137 852 167 863 l 206 863 b 217 874 213 863 217 866 l 217 879 l 217 897 l 217 1026 b 210 1033 217 1031 214 1033 l 190 1033 b 182 1026 185 1033 182 1031 l 182 907 b 174 900 182 900 179 898 z m 63 93 l 63 703 b 68 708 63 706 64 708 l 172 708 b 178 701 177 708 179 706 b 71 93 133 461 98 258 b 66 90 70 90 68 89 b 63 93 64 90 63 91 z m 63 844 l 63 914 b 66 919 63 917 64 919 b 72 918 68 920 70 920 b 115 885 85 905 100 894 b 118 880 117 884 118 882 b 115 875 118 878 117 876 b 72 840 100 866 85 854 b 66 839 70 838 68 838 b 63 844 64 840 63 842 z "},"C":{"ha":244,"x_min":0,"x_max":0,"o":"m 176 -31 b 72 -85 135 -36 100 -54 b 66 -86 70 -87 68 -87 b 63 -82 64 -85 63 -84 l 63 915 b 66 920 63 917 64 919 b 72 918 68 922 70 921 b 200 863 106 881 149 863 l 206 863 b 217 874 213 863 217 866 l 217 1026 b 210 1035 217 1032 214 1035 l 190 1035 b 182 1026 185 1035 182 1032 l 182 906 b 175 899 182 901 180 899 b 97 943 144 904 119 919 b 63 1026 76 967 64 995 b 56 1035 63 1032 60 1035 l 36 1035 b 28 1026 31 1035 28 1032 l 28 -193 b 36 -200 28 -198 31 -200 l 56 -200 b 63 -193 60 -200 63 -198 b 97 -110 64 -162 76 -134 b 175 -65 119 -86 144 -71 b 182 -71 180 -64 182 -66 l 182 -193 b 190 -200 182 -198 185 -200 l 210 -200 b 217 -193 214 -200 217 -198 l 217 39 b 210 47 217 44 214 47 l 190 47 b 182 39 185 47 182 44 l 182 -22 b 176 -31 182 -27 180 -30 z "},"D":{"ha":243,"x_min":0,"x_max":0,"o":"m 0 1026 l 0 1007 b 8 999 0 1001 3 999 l 22 999 l 28 993 l 28 -193 b 36 -201 28 -199 31 -201 l 56 -201 b 63 -193 60 -201 63 -199 b 215 1008 67 -110 118 291 b 214 1018 216 1012 216 1015 l 203 1029 b 194 1033 201 1032 198 1033 l 8 1033 b 0 1026 3 1033 0 1031 z m 63 174 l 63 993 b 68 999 63 997 64 999 l 174 999 b 179 992 177 999 179 996 b 71 174 135 668 99 395 b 66 170 70 171 68 170 b 63 174 64 171 63 172 z "},"E":{"ha":244,"x_min":0,"x_max":0,"o":"m 175 -31 b 72 -85 134 -36 100 -54 b 66 -86 70 -87 68 -87 b 63 -81 64 -85 63 -83 l 63 571 b 100 665 63 607 75 638 b 192 708 125 691 156 706 b 200 715 197 708 200 711 l 200 735 b 192 743 200 740 197 743 b 100 785 156 745 125 759 b 63 879 75 812 63 843 l 63 914 b 66 919 63 917 64 919 b 72 918 68 920 70 920 b 200 863 106 881 149 863 l 206 863 b 217 874 213 863 217 866 l 217 1026 b 210 1033 217 1031 214 1033 l 190 1033 b 182 1026 185 1033 182 1031 l 182 904 b 175 899 182 900 180 898 b 119 922 155 902 136 910 b 79 967 103 934 89 949 b 63 1026 69 985 63 1005 b 56 1033 63 1031 60 1033 l 36 1033 b 28 1026 31 1033 28 1031 l 28 879 b 51 792 28 848 36 819 b 115 731 67 766 88 745 b 118 726 117 730 118 728 b 115 721 118 723 117 722 b 51 658 88 705 67 684 b 28 571 36 631 28 602 l 28 -193 b 36 -200 28 -198 31 -200 l 56 -200 b 63 -193 60 -200 63 -198 b 97 -110 64 -162 76 -134 b 175 -65 119 -86 144 -71 b 182 -71 180 -65 182 -67 l 182 -193 b 190 -200 182 -198 185 -200 l 210 -200 b 217 -193 214 -200 217 -198 l 217 39 b 210 47 217 44 214 47 l 190 47 b 182 39 185 47 182 44 l 182 -24 b 175 -31 182 -27 180 -30 z "},"F":{"ha":244,"x_min":0,"x_max":0,"o":"m 175 899 b 97 943 144 904 119 919 b 63 1026 76 967 64 995 b 56 1033 63 1031 60 1033 l 36 1033 b 28 1026 31 1033 28 1031 l 28 879 b 51 792 28 848 36 819 b 115 731 67 766 88 745 b 118 726 117 730 118 728 b 115 721 118 723 117 722 b 51 658 88 705 67 684 b 28 571 36 631 28 602 l 28 -193 b 36 -200 28 -198 31 -200 l 54 -200 b 63 -193 60 -200 63 -198 l 63 571 b 100 665 63 607 75 638 b 192 708 125 691 156 706 b 200 715 197 708 200 711 l 200 735 b 192 743 200 740 197 743 b 100 785 156 745 125 759 b 63 879 75 812 63 843 l 63 914 b 66 919 63 917 64 919 b 72 918 68 920 70 920 b 200 863 106 881 149 863 l 206 863 b 217 874 213 863 217 866 l 217 1026 b 210 1033 217 1031 214 1033 l 190 1033 b 182 1026 185 1033 182 1031 l 182 904 b 175 899 182 900 180 898 z "},"G":{"ha":243,"x_min":0,"x_max":0,"o":"m 175 899 b 97 943 144 904 117 919 b 63 1026 76 967 64 995 b 54 1033 63 1031 60 1033 l 35 1033 b 28 1026 30 1033 28 1031 l 28 614 b 22 608 28 610 26 608 l 8 608 b 0 600 3 608 0 606 l 0 581 b 8 574 0 576 3 574 l 22 574 b 28 568 26 574 28 572 l 28 -193 b 35 -200 28 -198 30 -200 l 54 -200 b 63 -193 60 -200 63 -198 b 97 -110 64 -162 76 -134 b 175 -65 119 -86 144 -71 b 182 -71 180 -64 182 -66 l 182 -193 b 189 -200 182 -198 184 -200 l 208 -200 b 217 -193 214 -200 217 -198 l 217 738 b 208 744 217 742 214 744 l 189 744 b 182 738 184 744 182 742 b 147 654 180 706 169 678 b 69 610 126 630 100 615 b 63 615 65 609 63 611 l 63 915 b 66 919 63 917 64 919 b 72 918 68 920 70 920 b 199 863 106 881 149 863 l 204 863 b 217 874 213 863 217 866 l 217 1026 b 208 1033 217 1031 214 1033 l 189 1033 b 182 1026 184 1033 182 1031 l 182 906 b 175 899 182 901 180 899 z m 182 625 l 182 -22 b 175 -31 182 -27 180 -30 b 118 -49 155 -33 136 -39 b 72 -85 100 -58 85 -70 b 66 -86 70 -87 68 -87 b 63 -81 64 -85 63 -83 l 63 569 b 67 575 63 572 64 574 b 172 629 108 581 144 599 b 178 631 173 631 175 631 b 182 625 181 630 182 628 z "},"H":{"ha":244,"x_min":0,"x_max":0,"o":"m 175 896 b 72 840 134 889 100 871 b 66 839 70 838 68 838 b 63 844 64 840 63 842 l 63 1026 b 54 1033 63 1031 60 1033 l 36 1033 b 28 1026 31 1033 28 1031 l 28 -193 b 36 -200 28 -198 31 -200 l 54 -200 b 63 -193 60 -200 63 -198 l 63 725 b 94 813 63 758 73 788 b 175 860 116 839 143 854 b 182 854 180 861 182 859 l 182 -193 b 190 -200 182 -198 185 -200 l 210 -200 b 217 -193 214 -200 217 -198 l 217 1026 b 210 1033 217 1031 214 1033 l 190 1033 b 182 1026 185 1033 182 1031 l 182 903 b 175 896 182 898 180 896 z "},"I":{"ha":213,"x_min":0,"x_max":0,"o":"m 97 -200 l 117 -200 b 125 -193 122 -200 125 -198 l 125 854 b 117 863 125 860 122 863 l 97 863 b 90 854 93 863 90 860 l 90 -193 b 97 -200 90 -198 93 -200 z m 167 1032 l 113 978 b 101 978 109 974 105 974 l 47 1032 b 36 1032 44 1036 40 1036 l 24 1018 b 24 1007 20 1014 20 1011 l 76 953 b 76 942 80 949 80 945 l 24 889 b 24 878 20 885 20 881 l 36 864 b 47 864 40 860 44 860 l 101 918 b 113 918 105 922 109 922 l 167 864 b 178 864 170 860 174 860 l 192 878 b 192 889 194 881 194 885 l 138 942 b 138 953 134 945 134 949 l 192 1007 b 192 1018 194 1011 194 1014 l 178 1032 b 167 1032 174 1036 170 1036 z "},"J":{"ha":244,"x_min":0,"x_max":0,"o":"m 46 897 l 36 897 b 28 889 31 897 28 894 l 28 869 b 36 863 28 865 31 863 l 46 863 b 172 918 97 863 139 881 b 179 919 174 920 176 920 b 183 914 182 919 183 917 l 183 -81 b 179 -86 183 -83 182 -85 b 172 -85 176 -87 174 -87 b 69 -31 144 -54 110 -36 b 63 -24 65 -30 63 -27 l 63 735 b 56 743 63 740 60 743 l 36 743 b 28 735 31 743 28 740 l 28 -193 b 36 -200 28 -198 31 -200 l 56 -200 b 63 -193 60 -200 63 -198 l 63 -71 b 69 -65 63 -67 65 -65 b 149 -110 101 -71 127 -86 b 182 -193 170 -134 181 -162 b 190 -200 183 -198 186 -200 l 210 -200 b 218 -193 215 -200 218 -198 l 218 1026 b 210 1033 218 1031 215 1033 l 190 1033 b 182 1026 186 1033 183 1031 b 140 935 180 990 166 960 b 46 897 113 910 82 897 z "},"K":{"ha":243,"x_min":0,"x_max":0,"o":"m 175 896 b 72 840 134 889 100 871 b 66 839 70 838 68 838 b 63 844 64 840 63 842 l 63 1026 b 54 1033 63 1031 60 1033 l 35 1033 b 28 1026 30 1033 28 1031 l 28 749 b 22 743 28 747 26 745 l 8 743 b 0 736 3 743 0 741 l 0 717 b 8 708 0 711 3 708 l 22 708 l 28 703 l 28 -193 b 35 -200 28 -198 30 -200 l 54 -200 b 63 -193 60 -200 63 -198 l 63 703 b 68 708 63 706 64 708 l 176 708 b 182 703 180 708 182 706 l 182 -193 b 189 -200 182 -198 184 -200 l 208 -200 b 217 -193 214 -200 217 -198 l 217 721 b 213 729 217 725 215 727 l 203 740 b 194 743 200 742 197 743 l 71 743 b 64 750 66 743 64 745 b 112 831 70 782 86 809 b 199 863 137 852 166 863 l 206 863 b 217 874 213 863 217 866 l 217 879 l 217 897 l 217 1026 b 208 1033 217 1031 214 1033 l 189 1033 b 182 1026 184 1033 182 1031 l 182 903 b 175 896 182 898 180 896 z "},"L":{"ha":244,"x_min":0,"x_max":0,"o":"m 175 -31 b 72 -85 134 -36 100 -54 b 66 -86 70 -87 68 -87 b 63 -81 64 -85 63 -83 l 63 1026 b 54 1033 63 1031 60 1033 l 36 1033 b 28 1026 31 1033 28 1031 l 28 -193 b 36 -200 28 -198 31 -200 l 56 -200 b 63 -193 60 -200 63 -198 b 97 -110 64 -162 76 -134 b 175 -65 119 -86 144 -71 b 182 -72 180 -65 182 -68 l 182 -193 b 190 -200 182 -198 185 -200 l 210 -200 b 217 -193 214 -200 217 -198 l 217 39 b 210 47 217 44 214 47 l 190 47 b 182 39 185 47 182 44 l 182 -24 b 175 -31 182 -27 180 -30 z "},"M":{"ha":244,"x_min":0,"x_max":0,"o":"m 117 988 l 63 1040 b 50 1043 59 1044 55 1045 l 35 1038 b 28 1026 30 1035 28 1031 l 28 -193 b 36 -200 28 -198 31 -200 l 54 -200 b 63 -193 60 -200 63 -198 l 63 863 b 69 879 63 869 65 875 l 172 982 b 178 983 174 984 176 984 b 182 978 181 982 182 981 l 182 -193 b 190 -200 182 -198 185 -200 l 210 -200 b 217 -193 214 -200 217 -198 l 217 1026 b 210 1038 217 1031 214 1035 l 194 1043 b 182 1040 190 1045 186 1044 l 128 988 b 117 988 124 984 120 984 z m 72 982 l 93 961 b 93 953 96 958 96 956 l 72 932 b 66 931 70 930 68 930 b 63 936 64 931 63 933 l 63 978 b 66 983 63 981 64 982 b 72 982 68 984 70 984 z "},"N":{"ha":244,"x_min":0,"x_max":0,"o":"m 175 899 b 97 943 144 904 119 919 b 63 1026 76 967 64 995 b 56 1033 63 1031 60 1033 l 36 1033 b 28 1026 31 1033 28 1031 l 28 -193 b 36 -200 28 -198 31 -200 l 54 -200 b 63 -193 60 -200 63 -198 l 63 914 b 66 919 63 917 64 919 b 72 918 68 920 70 920 b 175 864 100 888 134 869 b 182 857 180 863 182 861 l 182 -193 b 190 -200 182 -198 185 -200 l 210 -200 b 217 -193 214 -200 217 -198 l 217 1026 b 210 1033 217 1031 214 1033 l 190 1033 b 182 1026 185 1033 182 1031 l 182 906 b 175 899 182 901 180 899 z "},"O":{"ha":244,"x_min":0,"x_max":0,"o":"m 63 936 l 63 1026 b 54 1035 63 1032 60 1035 l 36 1035 b 28 1026 31 1035 28 1032 l 28 -193 b 35 -204 28 -198 30 -201 l 50 -210 b 63 -207 55 -212 59 -211 l 172 -99 b 178 -97 174 -97 176 -96 b 182 -103 181 -98 182 -100 l 182 -193 b 190 -200 182 -198 185 -200 l 210 -200 b 217 -193 214 -200 217 -198 l 217 1026 b 210 1038 217 1032 214 1036 l 194 1043 b 182 1040 190 1045 186 1044 l 72 932 b 66 931 70 930 68 930 b 63 936 64 931 63 933 z m 63 -144 l 63 863 b 69 879 63 869 65 875 l 172 982 b 178 983 174 984 176 984 b 182 978 181 982 182 981 l 182 -29 b 175 -46 182 -36 180 -41 l 72 -149 b 66 -150 70 -150 68 -151 b 63 -144 64 -149 63 -147 z "},"P":{"ha":244,"x_min":0,"x_max":0,"o":"m 175 899 b 97 943 144 904 119 919 b 63 1026 76 967 64 995 b 56 1033 63 1031 60 1033 l 36 1033 b 28 1026 31 1033 28 1031 l 28 725 l 28 708 l 28 -193 b 36 -200 28 -198 31 -200 l 54 -200 b 63 -193 60 -200 63 -198 l 63 708 l 63 725 b 103 822 63 763 76 795 b 200 863 130 849 162 863 l 206 863 b 217 874 213 863 217 866 l 217 879 l 217 897 l 217 1026 b 210 1033 217 1031 214 1033 l 190 1033 b 182 1026 185 1033 182 1031 l 182 904 b 175 899 182 900 180 898 z m 63 844 l 63 914 b 66 919 63 917 64 919 b 72 918 68 920 70 920 b 115 885 85 905 100 894 b 118 880 117 884 118 882 b 115 875 118 878 117 876 b 72 840 100 866 85 854 b 66 839 70 838 68 838 b 63 844 64 840 63 842 z "},"Q":{"ha":244,"x_min":0,"x_max":0,"o":"m 190 1033 b 182 1026 185 1033 182 1031 b 147 943 180 995 169 967 b 69 899 126 919 100 904 b 63 906 65 899 63 901 l 63 1026 b 54 1033 63 1031 60 1033 l 36 1033 b 28 1026 31 1033 28 1031 l 28 -193 b 36 -200 28 -198 31 -200 l 56 -200 b 63 -193 60 -200 63 -198 b 97 -110 64 -162 76 -134 b 175 -65 119 -86 144 -71 b 182 -72 180 -65 182 -68 l 182 -193 b 190 -200 182 -198 185 -200 l 210 -200 b 217 -193 214 -200 217 -198 l 217 1026 b 210 1033 217 1031 214 1033 z m 175 -31 b 72 -85 134 -36 100 -54 b 66 -86 70 -87 68 -87 b 63 -81 64 -85 63 -83 l 63 858 b 68 864 63 861 64 863 b 172 918 109 869 144 888 b 178 919 174 920 176 920 b 182 914 181 919 182 917 l 182 -24 b 175 -31 182 -27 180 -30 z "},"R":{"ha":243,"x_min":0,"x_max":0,"o":"m 175 899 b 97 943 144 904 119 919 b 63 1026 76 967 64 995 b 54 1033 63 1031 60 1033 l 35 1033 b 28 1026 30 1033 28 1031 l 28 749 b 22 743 28 745 26 743 l 8 743 b 0 735 3 743 0 740 l 0 715 b 8 708 0 711 3 708 l 22 708 b 28 703 26 708 28 706 l 28 -193 b 35 -200 28 -198 30 -200 l 54 -200 b 63 -193 60 -200 63 -198 l 63 703 b 68 708 63 706 64 708 l 176 708 b 182 703 180 708 182 706 l 182 -193 b 189 -200 182 -198 184 -200 l 208 -200 b 217 -193 214 -200 217 -198 l 217 721 b 213 729 217 724 215 726 l 203 739 b 194 743 200 742 197 743 l 69 743 b 64 750 65 743 63 745 b 111 830 70 781 86 808 b 199 863 136 852 165 863 l 206 863 b 217 874 213 863 217 866 l 217 879 l 217 897 l 217 1026 b 208 1033 217 1031 214 1033 l 189 1033 b 182 1026 184 1033 182 1031 l 182 904 b 175 899 182 900 180 898 z m 63 844 l 63 914 b 66 919 63 917 64 919 b 72 918 68 920 70 920 b 114 885 84 905 98 894 b 118 880 117 884 118 882 b 114 875 118 878 117 876 b 72 840 98 866 84 854 b 66 839 70 838 68 838 b 63 844 64 840 63 842 z "},"S":{"ha":244,"x_min":0,"x_max":0,"o":"m 175 899 b 119 923 155 902 136 910 b 79 969 103 935 89 951 b 63 1028 69 988 63 1007 b 57 1033 63 1031 61 1033 l 33 1033 b 28 1028 30 1033 28 1031 l 28 879 b 71 767 28 837 42 799 b 178 710 100 734 135 715 b 182 704 181 709 182 707 l 182 -81 b 178 -86 182 -83 181 -85 b 172 -85 176 -87 174 -87 b 68 -31 144 -54 109 -36 b 63 -25 64 -30 63 -28 l 63 661 b 57 668 63 666 61 668 l 33 668 b 28 661 30 668 28 666 l 28 -194 b 33 -200 28 -198 30 -200 l 57 -200 b 63 -194 61 -200 63 -198 l 63 -72 b 69 -65 63 -68 65 -65 b 149 -110 101 -71 127 -86 b 182 -194 170 -135 181 -163 b 188 -200 182 -198 184 -200 l 211 -200 b 217 -194 215 -200 217 -198 l 217 721 b 214 729 217 724 216 726 l 203 739 b 194 743 201 742 198 743 b 101 784 158 744 127 758 b 63 879 75 810 63 842 l 63 914 b 66 919 63 917 64 919 b 72 918 68 920 70 920 b 194 863 106 882 146 863 b 203 865 198 863 201 863 l 214 876 b 217 885 216 878 217 881 l 217 1028 b 211 1033 217 1031 215 1033 l 188 1033 b 182 1028 184 1033 182 1031 l 182 904 b 175 899 182 900 180 898 z "},"T":{"ha":196,"x_min":0,"x_max":0,"o":"m 29 999 l 168 999 b 175 1007 173 999 175 1001 l 175 1026 b 168 1033 175 1031 173 1033 l 29 1033 b 21 1026 24 1033 21 1031 l 21 1007 b 29 999 21 1001 24 999 z m 29 897 l 76 897 b 82 892 80 897 82 895 l 82 -193 b 90 -200 82 -198 85 -200 l 106 -200 b 114 -193 111 -200 114 -198 l 114 892 b 119 897 114 895 116 897 l 168 897 b 175 904 173 897 175 900 l 175 924 b 168 932 175 929 173 932 l 29 932 b 21 924 24 932 21 929 l 21 904 b 29 897 21 900 24 897 z "},"U":{"ha":244,"x_min":0,"x_max":0,"o":"m 175 -31 b 119 -49 156 -33 137 -39 b 72 -85 102 -58 86 -70 b 66 -86 70 -87 68 -87 b 63 -82 64 -85 63 -84 l 63 1026 b 54 1033 63 1031 60 1033 l 36 1033 b 28 1026 31 1033 28 1031 l 28 -193 b 36 -200 28 -198 31 -200 l 56 -200 b 63 -193 60 -200 63 -198 b 97 -110 64 -162 76 -134 b 175 -65 119 -86 144 -71 b 182 -72 180 -65 182 -68 l 182 -193 b 190 -200 182 -198 185 -200 l 210 -200 b 217 -193 214 -200 217 -198 l 217 1026 b 210 1033 217 1031 214 1033 l 190 1033 b 182 1026 185 1033 182 1031 l 182 -24 b 175 -31 182 -27 180 -30 z "},"V":{"ha":236,"x_min":0,"x_max":0,"o":"m 35 839 b 36 840 35 840 35 840 b 38 838 37 839 38 838 l 103 -193 b 110 -200 103 -198 105 -200 l 126 -200 b 133 -193 131 -200 133 -198 l 217 1028 b 211 1035 217 1031 215 1033 l 194 1042 b 186 1040 192 1044 189 1043 l 72 922 b 66 921 70 920 68 920 b 63 926 64 922 63 924 l 56 1026 b 49 1033 56 1031 53 1033 l 33 1033 b 25 1026 28 1033 25 1031 b 33 886 25 1026 33 886 b 32 881 34 884 34 882 l 17 865 b 17 854 13 862 13 858 l 32 839 b 35 839 33 838 34 838 z m 182 976 l 122 96 b 119 93 122 94 121 93 b 115 96 116 93 115 94 l 65 868 b 68 874 65 871 66 873 l 172 982 b 178 983 174 984 176 984 b 182 976 181 981 182 979 z "},"W":{"ha":244,"x_min":0,"x_max":0,"o":"m 128 -154 l 182 -207 b 194 -210 186 -211 190 -212 l 210 -204 b 217 -193 214 -201 217 -198 l 217 1026 b 210 1033 217 1031 214 1033 l 190 1033 b 182 1026 185 1033 182 1031 l 182 -35 b 179 -43 182 -37 181 -40 l 72 -149 b 66 -150 70 -150 68 -151 b 63 -144 64 -149 63 -147 l 63 1026 b 54 1033 63 1031 60 1033 l 36 1033 b 28 1026 31 1033 28 1031 l 28 -193 b 35 -204 28 -198 30 -201 l 50 -210 b 63 -207 55 -212 59 -211 l 117 -154 b 128 -154 120 -150 124 -150 z m 172 -149 l 151 -128 b 151 -119 149 -125 149 -122 l 172 -99 b 178 -97 174 -97 176 -96 b 182 -103 181 -98 182 -100 l 182 -144 b 178 -150 182 -147 181 -149 b 172 -149 176 -151 174 -150 z "},"X":{"ha":226,"x_min":0,"x_max":0,"o":"m 140 963 l 196 1018 b 196 1031 200 1022 200 1026 l 186 1040 b 174 1040 181 1044 177 1044 l 118 985 b 108 985 115 981 112 981 l 53 1040 b 42 1040 49 1044 45 1044 l 32 1031 b 32 1018 27 1026 27 1022 l 88 963 b 88 953 90 960 90 956 l 28 893 b 21 878 23 889 21 884 l 21 -192 b 29 -200 21 -197 24 -200 l 43 -200 b 51 -192 49 -200 51 -197 l 51 869 b 56 878 51 872 53 875 l 108 931 b 118 931 112 934 115 934 l 171 878 b 175 869 174 875 175 872 l 175 -192 b 183 -200 175 -197 178 -200 l 197 -200 b 206 -192 203 -200 206 -197 l 206 878 b 199 893 206 884 203 889 l 140 953 b 140 963 137 956 137 960 z "},"Y":{"ha":243,"x_min":0,"x_max":0,"o":"m 63 904 l 63 1026 b 56 1033 63 1031 60 1033 l 36 1033 b 28 1026 31 1033 28 1031 l 28 885 b 32 876 28 882 29 879 l 42 865 b 50 863 43 863 46 863 b 172 918 99 863 140 882 b 178 919 174 920 176 920 b 182 914 181 919 182 917 l 182 -82 b 178 -87 182 -85 181 -87 b 172 -86 176 -88 174 -88 b 69 -31 140 -54 106 -35 b 63 -24 65 -31 63 -28 l 63 735 b 54 743 63 740 60 743 l 36 743 b 28 735 31 743 28 740 l 28 -193 b 36 -201 28 -199 31 -201 l 54 -201 b 63 -193 60 -201 63 -199 l 63 -72 b 69 -67 63 -68 65 -66 b 147 -110 100 -72 126 -87 b 182 -193 169 -134 180 -162 b 190 -201 182 -199 185 -201 l 210 -201 b 217 -193 214 -201 217 -199 l 217 1026 b 210 1033 217 1031 214 1033 l 190 1033 b 182 1026 185 1033 182 1031 b 148 943 182 997 171 969 b 69 899 127 919 101 904 b 63 904 65 898 63 900 z "},"Z":{"ha":244,"x_min":0,"x_max":0,"o":"m 217 879 l 217 1026 b 210 1033 217 1031 214 1033 l 190 1033 b 182 1026 185 1033 182 1031 b 147 943 180 995 169 967 b 69 899 126 919 100 904 b 63 904 65 898 63 900 l 63 1026 b 54 1033 63 1031 60 1033 l 36 1033 b 28 1026 31 1033 28 1031 l 28 885 b 31 876 28 881 29 878 l 42 865 b 50 863 44 863 47 863 b 172 918 99 863 140 882 b 178 919 174 920 176 920 b 182 914 181 919 182 917 l 182 879 b 143 784 182 842 169 810 b 50 743 117 758 86 744 b 42 739 46 743 44 742 l 31 729 b 28 721 29 726 28 724 l 28 -193 b 36 -200 28 -198 31 -200 l 56 -200 b 63 -193 60 -200 63 -198 b 97 -110 64 -162 76 -134 b 175 -65 119 -86 144 -71 b 182 -72 180 -65 182 -68 l 182 -193 b 190 -200 182 -198 185 -200 l 210 -200 b 217 -193 214 -200 217 -198 l 217 660 b 210 668 217 665 214 668 l 190 668 b 182 660 185 668 182 665 l 182 -24 b 175 -31 182 -27 180 -30 b 72 -85 134 -36 100 -54 b 66 -86 70 -87 68 -87 b 63 -81 64 -85 63 -83 l 63 701 b 69 710 63 706 65 709 b 174 767 111 715 146 734 b 217 879 203 799 217 837 z "},"[":{"ha":188,"x_min":0,"x_max":0,"o":"m 28 1011 l 28 -178 b 31 -186 28 -181 29 -184 l 42 -197 b 50 -200 44 -199 46 -200 l 153 -200 b 161 -193 158 -200 161 -198 l 161 -174 b 153 -165 161 -168 158 -165 l 68 -165 b 63 -160 64 -165 63 -163 l 63 993 b 68 999 63 997 64 999 l 153 999 b 161 1007 158 999 161 1001 l 161 1026 b 153 1033 161 1031 158 1033 l 50 1033 b 42 1031 47 1033 44 1032 l 31 1019 b 28 1011 29 1018 28 1015 z "},"\\":{"ha":242,"x_min":0,"x_max":0,"o":"m 28 1025 l 181 -194 b 188 -200 181 -198 183 -200 l 207 -200 b 215 -192 213 -200 216 -197 l 63 1028 b 56 1033 62 1031 59 1033 l 36 1033 b 28 1025 30 1033 27 1031 z "},"]":{"ha":188,"x_min":0,"x_max":0,"o":"m 28 1026 l 28 1007 b 36 999 28 1001 31 999 l 121 999 b 126 993 125 999 126 997 l 126 -160 b 121 -165 126 -163 125 -165 l 36 -165 b 28 -174 31 -165 28 -168 l 28 -193 b 36 -200 28 -198 31 -200 l 139 -200 b 147 -197 142 -200 144 -199 l 157 -186 b 161 -178 160 -184 161 -181 l 161 1011 b 157 1019 161 1015 160 1018 l 147 1031 b 139 1033 144 1032 142 1033 l 36 1033 b 28 1026 31 1033 28 1031 z "},"^":{"ha":236,"x_min":0,"x_max":0,"o":"m 57 1139 b 57 1128 53 1135 53 1131 l 71 1114 b 82 1114 75 1110 78 1110 l 113 1144 b 124 1144 116 1148 120 1148 l 154 1114 b 165 1114 158 1110 162 1110 l 179 1128 b 179 1139 183 1131 183 1135 l 126 1192 b 110 1192 121 1197 115 1197 z "},"_":{"ha":244,"x_min":0,"x_max":0,"o":"m 210 -278 b 217 -271 214 -278 217 -275 l 217 -251 b 210 -243 217 -246 214 -243 l 36 -243 b 28 -251 31 -243 28 -246 l 28 -271 b 36 -278 28 -275 31 -278 z "},"`":{"ha":90,"x_min":0,"x_max":0,"o":"m 54 975 b 63 983 60 975 63 978 l 63 1025 b 54 1033 63 1031 60 1033 l 36 1033 b 28 1025 31 1033 28 1031 l 28 983 b 36 975 28 978 31 975 z "},"a":{"ha":236,"x_min":0,"x_max":0,"o":"m 203 -6 l 201 -6 b 200 -4 200 -6 200 -5 l 135 1026 b 126 1035 135 1032 132 1035 l 111 1035 b 103 1026 106 1035 103 1032 l 21 -193 b 25 -201 21 -197 22 -200 l 42 -208 b 51 -207 45 -210 49 -210 l 165 -89 b 171 -87 166 -87 168 -87 b 175 -93 174 -88 175 -90 l 181 -193 b 189 -201 181 -199 184 -201 l 204 -201 b 211 -193 210 -201 212 -199 l 203 -53 b 206 -47 203 -51 204 -49 l 221 -31 b 221 -21 225 -27 225 -24 l 206 -6 b 203 -6 205 -5 204 -5 z m 56 -143 l 114 738 b 119 740 115 739 116 740 b 122 738 121 740 122 739 l 171 -35 b 169 -40 171 -37 170 -38 l 65 -147 b 59 -149 63 -149 61 -150 b 56 -143 57 -148 56 -146 z "},"b":{"ha":244,"x_min":0,"x_max":0,"o":"m 174 900 b 97 944 143 906 117 920 b 63 1026 76 967 64 995 b 56 1033 63 1031 60 1033 l 36 1033 b 28 1026 31 1033 28 1031 l 28 749 b 22 743 28 747 26 745 l 8 743 b 0 735 3 743 0 740 l 0 715 b 8 708 0 711 3 708 l 22 708 l 28 703 l 28 -193 b 36 -200 28 -198 31 -200 l 56 -200 b 63 -193 60 -200 63 -198 b 215 717 67 -116 118 187 b 214 726 216 720 216 724 l 203 739 b 194 743 201 742 198 743 l 71 743 b 65 750 66 743 64 745 b 112 830 71 781 86 808 b 200 863 137 852 167 863 l 206 863 b 217 874 213 863 217 866 l 217 879 l 217 897 l 217 1026 b 210 1033 217 1031 214 1033 l 190 1033 b 182 1026 185 1033 182 1031 l 182 907 b 174 900 182 900 179 898 z m 63 93 l 63 703 b 68 708 63 706 64 708 l 172 708 b 178 701 177 708 179 706 b 71 93 133 461 98 258 b 66 90 70 90 68 89 b 63 93 64 90 63 91 z m 63 844 l 63 914 b 66 919 63 917 64 919 b 72 918 68 920 70 920 b 115 885 85 905 100 894 b 118 880 117 884 118 882 b 115 875 118 878 117 876 b 72 840 100 866 85 854 b 66 839 70 838 68 838 b 63 844 64 840 63 842 z "},"c":{"ha":244,"x_min":0,"x_max":0,"o":"m 176 -31 b 72 -85 135 -36 100 -54 b 66 -86 70 -87 68 -87 b 63 -82 64 -85 63 -84 l 63 914 b 66 919 63 917 64 919 b 72 918 68 920 70 920 b 200 863 106 881 149 863 l 206 863 b 217 874 213 863 217 866 l 217 1026 b 210 1033 217 1031 214 1033 l 190 1033 b 182 1026 185 1033 182 1031 l 182 904 b 175 899 182 900 180 898 b 97 943 144 904 119 919 b 63 1026 76 967 64 995 b 56 1033 63 1031 60 1033 l 36 1033 b 28 1026 31 1033 28 1031 l 28 -193 b 36 -200 28 -198 31 -200 l 56 -200 b 63 -193 60 -200 63 -198 b 97 -110 64 -162 76 -134 b 175 -65 119 -86 144 -71 b 182 -71 180 -64 182 -66 l 182 -193 b 190 -200 182 -198 185 -200 l 210 -200 b 217 -193 214 -200 217 -198 l 217 39 b 210 47 217 44 214 47 l 190 47 b 182 39 185 47 182 44 l 182 -22 b 176 -31 182 -27 180 -30 z "},"d":{"ha":243,"x_min":0,"x_max":0,"o":"m 0 1026 l 0 1007 b 8 999 0 1001 3 999 l 22 999 l 28 993 l 28 -193 b 36 -201 28 -199 31 -201 l 56 -201 b 63 -193 60 -201 63 -199 b 215 1008 67 -110 118 291 b 214 1018 216 1012 216 1015 l 203 1029 b 194 1033 201 1032 198 1033 l 8 1033 b 0 1026 3 1033 0 1031 z m 63 174 l 63 993 b 68 999 63 997 64 999 l 174 999 b 179 992 177 999 179 996 b 71 174 135 668 99 395 b 66 170 70 171 68 170 b 63 174 64 171 63 172 z "},"e":{"ha":244,"x_min":0,"x_max":0,"o":"m 175 -31 b 72 -85 134 -36 100 -54 b 66 -86 70 -87 68 -87 b 63 -81 64 -85 63 -83 l 63 571 b 100 665 63 607 75 638 b 192 708 125 691 156 706 b 200 715 197 708 200 711 l 200 735 b 192 743 200 740 197 743 b 100 785 156 745 125 759 b 63 879 75 812 63 843 l 63 914 b 66 919 63 917 64 919 b 72 918 68 920 70 920 b 200 863 106 881 149 863 l 206 863 b 217 874 213 863 217 866 l 217 1026 b 210 1033 217 1031 214 1033 l 190 1033 b 182 1026 185 1033 182 1031 l 182 904 b 175 899 182 900 180 898 b 119 922 155 902 136 910 b 79 967 103 934 89 949 b 63 1026 69 985 63 1005 b 56 1033 63 1031 60 1033 l 36 1033 b 28 1026 31 1033 28 1031 l 28 879 b 51 792 28 848 36 819 b 115 731 67 766 88 745 b 118 726 117 730 118 728 b 115 721 118 723 117 722 b 51 658 88 705 67 684 b 28 571 36 631 28 602 l 28 -193 b 36 -200 28 -198 31 -200 l 56 -200 b 63 -193 60 -200 63 -198 b 97 -110 64 -162 76 -134 b 175 -65 119 -86 144 -71 b 182 -71 180 -65 182 -67 l 182 -193 b 190 -200 182 -198 185 -200 l 210 -200 b 217 -193 214 -200 217 -198 l 217 39 b 210 47 217 44 214 47 l 190 47 b 182 39 185 47 182 44 l 182 -24 b 175 -31 182 -27 180 -30 z "},"f":{"ha":244,"x_min":0,"x_max":0,"o":"m 175 899 b 97 943 144 904 119 919 b 63 1026 76 967 64 995 b 56 1033 63 1031 60 1033 l 36 1033 b 28 1026 31 1033 28 1031 l 28 879 b 51 792 28 848 36 819 b 115 731 67 766 88 745 b 118 726 117 730 118 728 b 115 721 118 723 117 722 b 51 658 88 705 67 684 b 28 571 36 631 28 602 l 28 -193 b 36 -200 28 -198 31 -200 l 54 -200 b 63 -193 60 -200 63 -198 l 63 571 b 100 665 63 607 75 638 b 192 708 125 691 156 706 b 200 715 197 708 200 711 l 200 735 b 192 743 200 740 197 743 b 100 785 156 745 125 759 b 63 879 75 812 63 843 l 63 914 b 66 919 63 917 64 919 b 72 918 68 920 70 920 b 200 863 106 881 149 863 l 206 863 b 217 874 213 863 217 866 l 217 1026 b 210 1033 217 1031 214 1033 l 190 1033 b 182 1026 185 1033 182 1031 l 182 904 b 175 899 182 900 180 898 z "},"g":{"ha":243,"x_min":0,"x_max":0,"o":"m 175 899 b 97 943 144 904 117 919 b 63 1026 76 967 64 995 b 54 1033 63 1031 60 1033 l 35 1033 b 28 1026 30 1033 28 1031 l 28 614 b 22 608 28 610 26 608 l 8 608 b 0 600 3 608 0 606 l 0 581 b 8 574 0 576 3 574 l 22 574 b 28 568 26 574 28 572 l 28 -193 b 35 -200 28 -198 30 -200 l 54 -200 b 63 -193 60 -200 63 -198 b 97 -110 64 -162 76 -134 b 175 -65 119 -86 144 -71 b 182 -71 180 -64 182 -66 l 182 -193 b 189 -200 182 -198 184 -200 l 208 -200 b 217 -193 214 -200 217 -198 l 217 738 b 208 744 217 742 214 744 l 189 744 b 182 738 184 744 182 742 b 147 654 180 706 169 678 b 69 610 126 630 100 615 b 63 615 65 609 63 611 l 63 915 b 66 919 63 917 64 919 b 72 918 68 920 70 920 b 199 863 106 881 149 863 l 204 863 b 217 874 213 863 217 866 l 217 1026 b 208 1033 217 1031 214 1033 l 189 1033 b 182 1026 184 1033 182 1031 l 182 906 b 175 899 182 901 180 899 z m 182 625 l 182 -22 b 175 -31 182 -27 180 -30 b 118 -49 155 -33 136 -39 b 72 -85 100 -58 85 -70 b 66 -86 70 -87 68 -87 b 63 -81 64 -85 63 -83 l 63 569 b 67 575 63 572 64 574 b 172 629 108 581 144 599 b 178 631 173 631 175 631 b 182 625 181 630 182 628 z "},"h":{"ha":244,"x_min":0,"x_max":0,"o":"m 175 896 b 72 840 134 889 100 871 b 66 839 70 838 68 838 b 63 844 64 840 63 842 l 63 1026 b 54 1033 63 1031 60 1033 l 36 1033 b 28 1026 31 1033 28 1031 l 28 -193 b 36 -200 28 -198 31 -200 l 54 -200 b 63 -193 60 -200 63 -198 l 63 725 b 94 813 63 758 73 788 b 175 860 116 839 143 854 b 182 854 180 861 182 859 l 182 -193 b 190 -200 182 -198 185 -200 l 210 -200 b 217 -193 214 -200 217 -198 l 217 1026 b 210 1033 217 1031 214 1033 l 190 1033 b 182 1026 185 1033 182 1031 l 182 903 b 175 896 182 898 180 896 z "},"i":{"ha":214,"x_min":0,"x_max":0,"o":"m 97 -200 l 117 -200 b 125 -193 122 -200 125 -198 l 125 854 b 117 863 125 860 122 863 l 97 863 b 90 854 93 863 90 860 l 90 -193 b 97 -200 90 -198 93 -200 z m 167 1032 l 113 978 b 101 978 109 974 105 974 l 47 1032 b 36 1032 44 1036 40 1036 l 24 1018 b 24 1007 20 1014 20 1011 l 76 953 b 76 942 80 949 80 945 l 24 889 b 24 878 20 885 20 881 l 36 864 b 47 864 40 860 44 860 l 101 918 b 113 918 105 922 109 922 l 167 864 b 178 864 170 860 174 860 l 192 878 b 192 889 194 881 194 885 l 138 942 b 138 953 134 945 134 949 l 192 1007 b 192 1018 194 1011 194 1014 l 178 1032 b 167 1032 174 1036 170 1036 z "},"j":{"ha":244,"x_min":0,"x_max":0,"o":"m 46 897 l 36 897 b 28 889 31 897 28 894 l 28 869 b 36 863 28 865 31 863 l 46 863 b 172 918 97 863 139 881 b 179 919 174 920 176 920 b 183 914 182 919 183 917 l 183 -81 b 179 -86 183 -83 182 -85 b 172 -85 176 -87 174 -87 b 69 -31 144 -54 110 -36 b 63 -24 65 -30 63 -27 l 63 735 b 56 743 63 740 60 743 l 36 743 b 28 735 31 743 28 740 l 28 -193 b 36 -200 28 -198 31 -200 l 56 -200 b 63 -193 60 -200 63 -198 l 63 -71 b 69 -65 63 -67 65 -65 b 149 -110 101 -71 127 -86 b 182 -193 170 -134 181 -162 b 190 -200 183 -198 186 -200 l 210 -200 b 218 -193 215 -200 218 -198 l 218 1026 b 210 1033 218 1031 215 1033 l 190 1033 b 182 1026 186 1033 183 1031 b 140 935 180 990 166 960 b 46 897 113 910 82 897 z "},"k":{"ha":243,"x_min":0,"x_max":0,"o":"m 175 896 b 72 840 134 889 100 871 b 66 839 70 838 68 838 b 63 844 64 840 63 842 l 63 1026 b 54 1033 63 1031 60 1033 l 35 1033 b 28 1026 30 1033 28 1031 l 28 749 b 22 743 28 747 26 745 l 8 743 b 0 736 3 743 0 741 l 0 717 b 8 708 0 711 3 708 l 22 708 l 28 703 l 28 -193 b 35 -200 28 -198 30 -200 l 54 -200 b 63 -193 60 -200 63 -198 l 63 703 b 68 708 63 706 64 708 l 176 708 b 182 703 180 708 182 706 l 182 -193 b 189 -200 182 -198 184 -200 l 208 -200 b 217 -193 214 -200 217 -198 l 217 721 b 213 729 217 725 215 727 l 203 740 b 194 743 200 742 197 743 l 71 743 b 64 750 66 743 64 745 b 112 831 70 782 86 809 b 199 863 137 852 166 863 l 206 863 b 217 874 213 863 217 866 l 217 879 l 217 897 l 217 1026 b 208 1033 217 1031 214 1033 l 189 1033 b 182 1026 184 1033 182 1031 l 182 903 b 175 896 182 898 180 896 z "},"l":{"ha":244,"x_min":0,"x_max":0,"o":"m 175 -31 b 72 -85 134 -36 100 -54 b 66 -86 70 -87 68 -87 b 63 -81 64 -85 63 -83 l 63 1026 b 54 1033 63 1031 60 1033 l 36 1033 b 28 1026 31 1033 28 1031 l 28 -193 b 36 -200 28 -198 31 -200 l 56 -200 b 63 -193 60 -200 63 -198 b 97 -110 64 -162 76 -134 b 175 -65 119 -86 144 -71 b 182 -72 180 -65 182 -68 l 182 -193 b 190 -200 182 -198 185 -200 l 210 -200 b 217 -193 214 -200 217 -198 l 217 39 b 210 47 217 44 214 47 l 190 47 b 182 39 185 47 182 44 l 182 -24 b 175 -31 182 -27 180 -30 z "},"m":{"ha":244,"x_min":0,"x_max":0,"o":"m 117 988 l 63 1040 b 50 1043 59 1044 55 1045 l 35 1038 b 28 1026 30 1035 28 1031 l 28 -193 b 36 -200 28 -198 31 -200 l 54 -200 b 63 -193 60 -200 63 -198 l 63 863 b 69 879 63 869 65 875 l 172 982 b 178 983 174 984 176 984 b 182 978 181 982 182 981 l 182 -193 b 190 -200 182 -198 185 -200 l 210 -200 b 217 -193 214 -200 217 -198 l 217 1026 b 210 1038 217 1031 214 1035 l 194 1043 b 182 1040 190 1045 186 1044 l 128 988 b 117 988 124 984 120 984 z m 72 982 l 93 961 b 93 953 96 958 96 956 l 72 932 b 66 931 70 930 68 930 b 63 936 64 931 63 933 l 63 978 b 66 983 63 981 64 982 b 72 982 68 984 70 984 z "},"n":{"ha":244,"x_min":0,"x_max":0,"o":"m 175 899 b 97 943 144 904 119 919 b 63 1026 76 967 64 995 b 56 1033 63 1031 60 1033 l 36 1033 b 28 1026 31 1033 28 1031 l 28 -193 b 36 -200 28 -198 31 -200 l 54 -200 b 63 -193 60 -200 63 -198 l 63 914 b 66 919 63 917 64 919 b 72 918 68 920 70 920 b 175 864 100 888 134 869 b 182 857 180 863 182 861 l 182 -193 b 190 -200 182 -198 185 -200 l 210 -200 b 217 -193 214 -200 217 -198 l 217 1026 b 210 1033 217 1031 214 1033 l 190 1033 b 182 1026 185 1033 182 1031 l 182 906 b 175 899 182 901 180 899 z "},"o":{"ha":244,"x_min":0,"x_max":0,"o":"m 63 936 l 63 1026 b 54 1035 63 1032 60 1035 l 36 1035 b 28 1026 31 1035 28 1032 l 28 -193 b 35 -204 28 -198 30 -201 l 50 -210 b 63 -207 55 -212 59 -211 l 172 -99 b 178 -97 174 -97 176 -96 b 182 -103 181 -98 182 -100 l 182 -193 b 190 -200 182 -198 185 -200 l 210 -200 b 217 -193 214 -200 217 -198 l 217 1026 b 210 1038 217 1032 214 1036 l 194 1043 b 182 1040 190 1045 186 1044 l 72 932 b 66 931 70 930 68 930 b 63 936 64 931 63 933 z m 63 -144 l 63 863 b 69 879 63 869 65 875 l 172 982 b 178 983 174 984 176 984 b 182 978 181 982 182 981 l 182 -29 b 175 -46 182 -36 180 -41 l 72 -149 b 66 -150 70 -150 68 -151 b 63 -144 64 -149 63 -147 z "},"p":{"ha":244,"x_min":0,"x_max":0,"o":"m 175 899 b 97 943 144 904 119 919 b 63 1026 76 967 64 995 b 56 1033 63 1031 60 1033 l 36 1033 b 28 1026 31 1033 28 1031 l 28 725 l 28 708 l 28 -193 b 36 -200 28 -198 31 -200 l 54 -200 b 63 -193 60 -200 63 -198 l 63 708 l 63 725 b 103 822 63 763 76 795 b 200 863 130 849 162 863 l 206 863 b 217 874 213 863 217 866 l 217 879 l 217 897 l 217 1026 b 210 1033 217 1031 214 1033 l 190 1033 b 182 1026 185 1033 182 1031 l 182 904 b 175 899 182 900 180 898 z m 63 844 l 63 914 b 66 919 63 917 64 919 b 72 918 68 920 70 920 b 115 885 85 905 100 894 b 118 880 117 884 118 882 b 115 875 118 878 117 876 b 72 840 100 866 85 854 b 66 839 70 838 68 838 b 63 844 64 840 63 842 z "},"q":{"ha":244,"x_min":0,"x_max":0,"o":"m 190 1033 b 182 1026 185 1033 182 1031 b 147 943 180 995 169 967 b 69 899 126 919 100 904 b 63 906 65 899 63 901 l 63 1026 b 54 1033 63 1031 60 1033 l 36 1033 b 28 1026 31 1033 28 1031 l 28 -193 b 36 -200 28 -198 31 -200 l 56 -200 b 63 -193 60 -200 63 -198 b 97 -110 64 -162 76 -134 b 175 -65 119 -86 144 -71 b 182 -72 180 -65 182 -68 l 182 -193 b 190 -200 182 -198 185 -200 l 210 -200 b 217 -193 214 -200 217 -198 l 217 1026 b 210 1033 217 1031 214 1033 z m 175 -31 b 72 -85 134 -36 100 -54 b 66 -86 70 -87 68 -87 b 63 -81 64 -85 63 -83 l 63 858 b 68 864 63 861 64 863 b 172 918 109 869 144 888 b 178 919 174 920 176 920 b 182 914 181 919 182 917 l 182 -24 b 175 -31 182 -27 180 -30 z "},"r":{"ha":243,"x_min":0,"x_max":0,"o":"m 175 899 b 97 943 144 904 119 919 b 63 1026 76 967 64 995 b 54 1033 63 1031 60 1033 l 35 1033 b 28 1026 30 1033 28 1031 l 28 749 b 22 743 28 745 26 743 l 8 743 b 0 735 3 743 0 740 l 0 715 b 8 708 0 711 3 708 l 22 708 b 28 703 26 708 28 706 l 28 -193 b 35 -200 28 -198 30 -200 l 54 -200 b 63 -193 60 -200 63 -198 l 63 703 b 68 708 63 706 64 708 l 176 708 b 182 703 180 708 182 706 l 182 -193 b 189 -200 182 -198 184 -200 l 208 -200 b 217 -193 214 -200 217 -198 l 217 721 b 213 729 217 724 215 726 l 203 739 b 194 743 200 742 197 743 l 69 743 b 64 750 65 743 63 745 b 111 830 70 781 86 808 b 199 863 136 852 165 863 l 206 863 b 217 874 213 863 217 866 l 217 879 l 217 897 l 217 1026 b 208 1033 217 1031 214 1033 l 189 1033 b 182 1026 184 1033 182 1031 l 182 904 b 175 899 182 900 180 898 z m 63 844 l 63 914 b 66 919 63 917 64 919 b 72 918 68 920 70 920 b 114 885 84 905 98 894 b 118 880 117 884 118 882 b 114 875 118 878 117 876 b 72 840 98 866 84 854 b 66 839 70 838 68 838 b 63 844 64 840 63 842 z "},"s":{"ha":244,"x_min":0,"x_max":0,"o":"m 175 899 b 119 923 155 902 136 910 b 79 969 103 935 89 951 b 63 1028 69 988 63 1007 b 57 1033 63 1031 61 1033 l 33 1033 b 28 1028 30 1033 28 1031 l 28 879 b 71 767 28 837 42 799 b 178 710 100 734 135 715 b 182 704 181 709 182 707 l 182 -81 b 178 -86 182 -83 181 -85 b 172 -85 176 -87 174 -87 b 68 -31 144 -54 109 -36 b 63 -25 64 -30 63 -28 l 63 661 b 57 668 63 666 61 668 l 33 668 b 28 661 30 668 28 666 l 28 -194 b 33 -200 28 -198 30 -200 l 57 -200 b 63 -194 61 -200 63 -198 l 63 -72 b 69 -65 63 -68 65 -65 b 149 -110 101 -71 127 -86 b 182 -194 170 -135 181 -163 b 188 -200 182 -198 184 -200 l 211 -200 b 217 -194 215 -200 217 -198 l 217 721 b 214 729 217 724 216 726 l 203 739 b 194 743 201 742 198 743 b 101 784 158 744 127 758 b 63 879 75 810 63 842 l 63 914 b 66 919 63 917 64 919 b 72 918 68 920 70 920 b 194 863 106 882 146 863 b 203 865 198 863 201 863 l 214 876 b 217 885 216 878 217 881 l 217 1028 b 211 1033 217 1031 215 1033 l 188 1033 b 182 1028 184 1033 182 1031 l 182 904 b 175 899 182 900 180 898 z "},"t":{"ha":196,"x_min":0,"x_max":0,"o":"m 29 999 l 168 999 b 175 1007 173 999 175 1001 l 175 1026 b 168 1033 175 1031 173 1033 l 29 1033 b 21 1026 24 1033 21 1031 l 21 1007 b 29 999 21 1001 24 999 z m 29 897 l 76 897 b 82 892 80 897 82 895 l 82 -193 b 90 -200 82 -198 85 -200 l 106 -200 b 114 -193 111 -200 114 -198 l 114 892 b 119 897 114 895 116 897 l 168 897 b 175 904 173 897 175 900 l 175 924 b 168 932 175 929 173 932 l 29 932 b 21 924 24 932 21 929 l 21 904 b 29 897 21 900 24 897 z "},"u":{"ha":244,"x_min":0,"x_max":0,"o":"m 175 -31 b 119 -49 156 -33 137 -39 b 72 -85 102 -58 86 -70 b 66 -86 70 -87 68 -87 b 63 -82 64 -85 63 -84 l 63 1026 b 54 1033 63 1031 60 1033 l 36 1033 b 28 1026 31 1033 28 1031 l 28 -193 b 36 -200 28 -198 31 -200 l 56 -200 b 63 -193 60 -200 63 -198 b 97 -110 64 -162 76 -134 b 175 -65 119 -86 144 -71 b 182 -72 180 -65 182 -68 l 182 -193 b 190 -200 182 -198 185 -200 l 210 -200 b 217 -193 214 -200 217 -198 l 217 1026 b 210 1033 217 1031 214 1033 l 190 1033 b 182 1026 185 1033 182 1031 l 182 -24 b 175 -31 182 -27 180 -30 z "},"v":{"ha":236,"x_min":0,"x_max":0,"o":"m 35 839 b 36 840 35 840 35 840 b 38 838 37 839 38 838 l 103 -193 b 110 -200 103 -198 105 -200 l 126 -200 b 133 -193 131 -200 133 -198 l 217 1028 b 211 1035 217 1031 215 1033 l 194 1042 b 186 1040 192 1044 189 1043 l 72 922 b 66 921 70 920 68 920 b 63 926 64 922 63 924 l 56 1026 b 49 1033 56 1031 53 1033 l 33 1033 b 25 1026 28 1033 25 1031 b 33 886 25 1026 33 886 b 32 881 34 884 34 882 l 17 865 b 17 854 13 862 13 858 l 32 839 b 35 839 33 838 34 838 z m 182 976 l 122 96 b 119 93 122 94 121 93 b 115 96 116 93 115 94 l 65 868 b 68 874 65 871 66 873 l 172 982 b 178 983 174 984 176 984 b 182 976 181 981 182 979 z "},"w":{"ha":244,"x_min":0,"x_max":0,"o":"m 128 -154 l 182 -207 b 194 -210 186 -211 190 -212 l 210 -204 b 217 -193 214 -201 217 -198 l 217 1026 b 210 1033 217 1031 214 1033 l 190 1033 b 182 1026 185 1033 182 1031 l 182 -35 b 179 -43 182 -37 181 -40 l 72 -149 b 66 -150 70 -150 68 -151 b 63 -144 64 -149 63 -147 l 63 1026 b 54 1033 63 1031 60 1033 l 36 1033 b 28 1026 31 1033 28 1031 l 28 -193 b 35 -204 28 -198 30 -201 l 50 -210 b 63 -207 55 -212 59 -211 l 117 -154 b 128 -154 120 -150 124 -150 z m 172 -149 l 151 -128 b 151 -119 149 -125 149 -122 l 172 -99 b 178 -97 174 -97 176 -96 b 182 -103 181 -98 182 -100 l 182 -144 b 178 -150 182 -147 181 -149 b 172 -149 176 -151 174 -150 z "},"x":{"ha":226,"x_min":0,"x_max":0,"o":"m 140 963 l 196 1018 b 196 1031 200 1022 200 1026 l 186 1040 b 174 1040 181 1044 177 1044 l 118 985 b 108 985 115 981 112 981 l 53 1040 b 42 1040 49 1044 45 1044 l 32 1031 b 32 1018 27 1026 27 1022 l 88 963 b 88 953 90 960 90 956 l 28 893 b 21 878 23 889 21 884 l 21 -192 b 29 -200 21 -197 24 -200 l 43 -200 b 51 -192 49 -200 51 -197 l 51 869 b 56 878 51 872 53 875 l 108 931 b 118 931 112 934 115 934 l 171 878 b 175 869 174 875 175 872 l 175 -192 b 183 -200 175 -197 178 -200 l 197 -200 b 206 -192 203 -200 206 -197 l 206 878 b 199 893 206 884 203 889 l 140 953 b 140 963 137 956 137 960 z "},"y":{"ha":243,"x_min":0,"x_max":0,"o":"m 63 904 l 63 1026 b 56 1033 63 1031 60 1033 l 36 1033 b 28 1026 31 1033 28 1031 l 28 885 b 32 876 28 882 29 879 l 42 865 b 50 863 43 863 46 863 b 172 918 99 863 140 882 b 178 919 174 920 176 920 b 182 914 181 919 182 917 l 182 -82 b 178 -87 182 -85 181 -87 b 172 -86 176 -88 174 -88 b 69 -31 140 -54 106 -35 b 63 -24 65 -31 63 -28 l 63 735 b 54 743 63 740 60 743 l 36 743 b 28 735 31 743 28 740 l 28 -193 b 36 -201 28 -199 31 -201 l 54 -201 b 63 -193 60 -201 63 -199 l 63 -72 b 69 -67 63 -68 65 -66 b 147 -110 100 -72 126 -87 b 182 -193 169 -134 180 -162 b 190 -201 182 -199 185 -201 l 210 -201 b 217 -193 214 -201 217 -199 l 217 1026 b 210 1033 217 1031 214 1033 l 190 1033 b 182 1026 185 1033 182 1031 b 148 943 182 997 171 969 b 69 899 127 919 101 904 b 63 904 65 898 63 900 z "},"z":{"ha":244,"x_min":0,"x_max":0,"o":"m 217 879 l 217 1026 b 210 1033 217 1031 214 1033 l 190 1033 b 182 1026 185 1033 182 1031 b 147 943 180 995 169 967 b 69 899 126 919 100 904 b 63 904 65 898 63 900 l 63 1026 b 54 1033 63 1031 60 1033 l 36 1033 b 28 1026 31 1033 28 1031 l 28 885 b 31 876 28 881 29 878 l 42 865 b 50 863 44 863 47 863 b 172 918 99 863 140 882 b 178 919 174 920 176 920 b 182 914 181 919 182 917 l 182 879 b 143 784 182 842 169 810 b 50 743 117 758 86 744 b 42 739 46 743 44 742 l 31 729 b 28 721 29 726 28 724 l 28 -193 b 36 -200 28 -198 31 -200 l 56 -200 b 63 -193 60 -200 63 -198 b 97 -110 64 -162 76 -134 b 175 -65 119 -86 144 -71 b 182 -72 180 -65 182 -68 l 182 -193 b 190 -200 182 -198 185 -200 l 210 -200 b 217 -193 214 -200 217 -198 l 217 660 b 210 668 217 665 214 668 l 190 668 b 182 660 185 668 182 665 l 182 -24 b 175 -31 182 -27 180 -30 b 72 -85 134 -36 100 -54 b 66 -86 70 -87 68 -87 b 63 -81 64 -85 63 -83 l 63 701 b 69 710 63 706 65 709 b 174 767 111 715 146 734 b 217 879 203 799 217 837 z "},"{":{"ha":221,"x_min":0,"x_max":0,"o":"m 128 500 l 128 935 b 145 978 128 951 134 966 b 188 1000 157 991 171 998 b 194 1007 192 1000 194 1002 l 194 1026 b 186 1035 194 1032 192 1035 b 120 1002 160 1032 138 1021 b 93 935 102 983 93 961 l 93 500 b 76 456 93 483 88 469 b 35 435 65 444 51 437 b 28 426 30 434 28 431 l 28 407 b 35 399 28 402 30 400 b 76 377 51 397 65 390 b 93 333 88 365 93 350 l 93 -101 b 101 -137 93 -113 96 -125 b 120 -169 106 -150 112 -160 b 149 -190 128 -178 138 -185 b 186 -201 161 -196 173 -200 b 194 -193 192 -201 194 -199 l 194 -174 b 188 -167 194 -169 192 -167 b 145 -145 171 -165 157 -158 b 128 -101 134 -133 128 -118 l 128 333 b 92 411 128 365 116 391 b 92 422 87 415 87 419 b 128 500 116 443 128 469 z "},"|":{"ha":90,"x_min":0,"x_max":0,"o":"m 63 -193 l 63 1026 b 54 1033 63 1031 60 1033 l 36 1033 b 28 1026 31 1033 28 1031 l 28 -193 b 36 -201 28 -199 31 -201 l 54 -201 b 63 -193 60 -201 63 -199 z "},"}":{"ha":221,"x_min":0,"x_max":0,"o":"m 93 500 b 129 422 93 469 105 443 b 129 411 135 419 135 415 b 93 333 105 391 93 365 l 93 -101 b 76 -145 93 -118 88 -133 b 35 -167 65 -158 51 -165 b 28 -174 30 -167 28 -169 l 28 -193 b 36 -201 28 -199 31 -201 b 101 -169 62 -199 84 -188 b 128 -101 119 -150 128 -127 l 128 333 b 145 377 128 350 134 365 b 188 399 157 390 171 397 b 194 407 192 400 194 402 l 194 426 b 188 435 194 431 192 434 b 145 456 171 437 157 444 b 128 500 134 469 128 483 l 128 935 b 101 1002 128 961 119 983 b 36 1035 84 1021 62 1032 b 28 1026 31 1035 28 1032 l 28 1007 b 35 1000 28 1002 30 1000 b 76 978 51 998 65 991 b 93 935 88 966 93 951 z "},"~":{"ha":236,"x_min":0,"x_max":0,"o":"m 157 1137 b 149 1145 157 1142 154 1145 l 88 1145 b 80 1137 82 1145 79 1142 l 80 1119 b 88 1110 80 1113 82 1110 l 149 1110 b 157 1119 154 1110 157 1113 z "},"":{"ha":244,"x_min":0,"x_max":0,"o":""},"":{"ha":244,"x_min":0,"x_max":0,"o":""},"":{"ha":244,"x_min":0,"x_max":0,"o":""},"":{"ha":244,"x_min":0,"x_max":0,"o":""},"":{"ha":244,"x_min":0,"x_max":0,"o":""},"":{"ha":244,"x_min":0,"x_max":0,"o":""},"":{"ha":244,"x_min":0,"x_max":0,"o":""},"":{"ha":244,"x_min":0,"x_max":0,"o":""},"":{"ha":244,"x_min":0,"x_max":0,"o":""},"":{"ha":244,"x_min":0,"x_max":0,"o":""},"":{"ha":244,"x_min":0,"x_max":0,"o":""},"":{"ha":244,"x_min":0,"x_max":0,"o":""},"":{"ha":244,"x_min":0,"x_max":0,"o":""},"":{"ha":244,"x_min":0,"x_max":0,"o":""},"":{"ha":244,"x_min":0,"x_max":0,"o":""},"":{"ha":244,"x_min":0,"x_max":0,"o":""},"":{"ha":244,"x_min":0,"x_max":0,"o":""},"":{"ha":244,"x_min":0,"x_max":0,"o":""},"":{"ha":244,"x_min":0,"x_max":0,"o":""},"":{"ha":244,"x_min":0,"x_max":0,"o":""},"":{"ha":244,"x_min":0,"x_max":0,"o":""},"":{"ha":244,"x_min":0,"x_max":0,"o":""},"":{"ha":244,"x_min":0,"x_max":0,"o":""},"":{"ha":244,"x_min":0,"x_max":0,"o":""},"":{"ha":244,"x_min":0,"x_max":0,"o":""},"":{"ha":244,"x_min":0,"x_max":0,"o":""},"":{"ha":244,"x_min":0,"x_max":0,"o":""},"":{"ha":244,"x_min":0,"x_max":0,"o":""},"":{"ha":244,"x_min":0,"x_max":0,"o":""},"":{"ha":244,"x_min":0,"x_max":0,"o":""},"":{"ha":244,"x_min":0,"x_max":0,"o":""},"":{"ha":244,"x_min":0,"x_max":0,"o":""},"":{"ha":244,"x_min":0,"x_max":0,"o":""},"":{"ha":236,"x_min":0,"x_max":0,"o":"m 139 1181 b 127 1181 135 1184 131 1184 l 84 1138 b 84 1126 80 1134 80 1130 l 97 1113 b 109 1113 101 1109 105 1109 l 151 1156 b 151 1168 155 1160 155 1164 z "},"":{"ha":236,"x_min":0,"x_max":0,"o":"m 83 1168 b 83 1156 80 1164 80 1160 l 126 1113 b 138 1113 130 1109 134 1109 l 151 1126 b 151 1138 155 1130 155 1134 l 108 1181 b 96 1181 104 1185 100 1185 z m 203 -6 l 201 -6 b 200 -4 200 -6 200 -5 l 135 1026 b 126 1035 135 1032 132 1035 l 111 1035 b 103 1026 106 1035 103 1032 l 21 -193 b 25 -201 21 -197 22 -200 l 42 -208 b 51 -207 45 -210 49 -210 l 165 -89 b 171 -87 166 -87 168 -87 b 175 -93 174 -88 175 -90 l 181 -193 b 189 -201 181 -199 184 -201 l 204 -201 b 211 -193 210 -201 212 -199 l 203 -53 b 206 -47 203 -51 204 -49 l 221 -31 b 221 -21 225 -27 225 -24 l 206 -6 b 203 -6 205 -5 204 -5 z m 56 -143 l 114 738 b 119 740 115 739 116 740 b 122 738 121 740 122 739 l 171 -35 b 169 -40 171 -37 170 -38 l 65 -147 b 59 -149 63 -149 61 -150 b 56 -143 57 -148 56 -146 z "},"":{"ha":236,"x_min":0,"x_max":0,"o":"m 139 1181 b 127 1181 135 1184 131 1184 l 84 1138 b 84 1126 80 1134 80 1130 l 97 1113 b 109 1113 101 1109 105 1109 l 151 1156 b 151 1168 155 1160 155 1164 z m 203 -6 l 201 -6 b 200 -4 200 -6 200 -5 l 135 1026 b 126 1035 135 1032 132 1035 l 111 1035 b 103 1026 106 1035 103 1032 l 21 -193 b 25 -201 21 -197 22 -200 l 42 -208 b 51 -207 45 -210 49 -210 l 165 -89 b 171 -87 166 -87 168 -87 b 175 -93 174 -88 175 -90 l 181 -193 b 189 -201 181 -199 184 -201 l 204 -201 b 211 -193 210 -201 212 -199 l 203 -53 b 206 -47 203 -51 204 -49 l 221 -31 b 221 -21 225 -27 225 -24 l 206 -6 b 203 -6 205 -5 204 -5 z m 56 -143 l 114 738 b 119 740 115 739 116 740 b 122 738 121 740 122 739 l 171 -35 b 169 -40 171 -37 170 -38 l 65 -147 b 59 -149 63 -149 61 -150 b 56 -143 57 -148 56 -146 z "},"":{"ha":236,"x_min":0,"x_max":0,"o":"m 57 1139 b 57 1128 53 1135 53 1131 l 71 1114 b 82 1114 75 1110 78 1110 l 113 1144 b 124 1144 116 1148 120 1148 l 154 1114 b 165 1114 158 1110 162 1110 l 179 1128 b 179 1139 183 1131 183 1135 l 126 1192 b 110 1192 121 1197 115 1197 z m 203 -6 l 201 -6 b 200 -4 200 -6 200 -5 l 135 1026 b 126 1035 135 1032 132 1035 l 111 1035 b 103 1026 106 1035 103 1032 l 21 -193 b 25 -201 21 -197 22 -200 l 42 -208 b 51 -207 45 -210 49 -210 l 165 -89 b 171 -87 166 -87 168 -87 b 175 -93 174 -88 175 -90 l 181 -193 b 189 -201 181 -199 184 -201 l 204 -201 b 211 -193 210 -201 212 -199 l 203 -53 b 206 -47 203 -51 204 -49 l 221 -31 b 221 -21 225 -27 225 -24 l 206 -6 b 203 -6 205 -5 204 -5 z m 56 -143 l 114 738 b 119 740 115 739 116 740 b 122 738 121 740 122 739 l 171 -35 b 169 -40 171 -37 170 -38 l 65 -147 b 59 -149 63 -149 61 -150 b 56 -143 57 -148 56 -146 z "},"":{"ha":236,"x_min":0,"x_max":0,"o":"m 157 1137 b 149 1145 157 1142 154 1145 l 88 1145 b 80 1137 82 1145 79 1142 l 80 1119 b 88 1110 80 1113 82 1110 l 149 1110 b 157 1119 154 1110 157 1113 z m 203 -6 l 201 -6 b 200 -4 200 -6 200 -5 l 135 1026 b 126 1035 135 1032 132 1035 l 111 1035 b 103 1026 106 1035 103 1032 l 21 -193 b 25 -201 21 -197 22 -200 l 42 -208 b 51 -207 45 -210 49 -210 l 165 -89 b 171 -87 166 -87 168 -87 b 175 -93 174 -88 175 -90 l 181 -193 b 189 -201 181 -199 184 -201 l 204 -201 b 211 -193 210 -201 212 -199 l 203 -53 b 206 -47 203 -51 204 -49 l 221 -31 b 221 -21 225 -27 225 -24 l 206 -6 b 203 -6 205 -5 204 -5 z m 56 -143 l 114 738 b 119 740 115 739 116 740 b 122 738 121 740 122 739 l 171 -35 b 169 -40 171 -37 170 -38 l 65 -147 b 59 -149 63 -149 61 -150 b 56 -143 57 -148 56 -146 z "},"":{"ha":236,"x_min":0,"x_max":0,"o":""},"":{"ha":236,"x_min":0,"x_max":0,"o":""},"":{"ha":244,"x_min":0,"x_max":0,"o":"m 161 -285 b 153 -277 161 -280 158 -278 l 92 -277 b 84 -285 86 -277 84 -280 l 84 -304 b 92 -312 84 -309 86 -312 l 153 -312 b 161 -303 158 -312 161 -309 z m 176 -31 b 72 -85 135 -36 100 -54 b 66 -86 70 -87 68 -87 b 63 -82 64 -85 63 -84 l 63 915 b 66 920 63 917 64 919 b 72 918 68 922 70 921 b 200 863 106 881 149 863 l 206 863 b 217 874 213 863 217 866 l 217 1026 b 210 1035 217 1032 214 1035 l 190 1035 b 182 1026 185 1035 182 1032 l 182 906 b 175 899 182 901 180 899 b 97 943 144 904 119 919 b 63 1026 76 967 64 995 b 56 1035 63 1032 60 1035 l 36 1035 b 28 1026 31 1035 28 1032 l 28 -193 b 36 -200 28 -198 31 -200 l 56 -200 b 63 -193 60 -200 63 -198 b 97 -110 64 -162 76 -134 b 175 -65 119 -86 144 -71 b 182 -71 180 -64 182 -66 l 182 -193 b 190 -200 182 -198 185 -200 l 210 -200 b 217 -193 214 -200 217 -198 l 217 39 b 210 47 217 44 214 47 l 190 47 b 182 39 185 47 182 44 l 182 -22 b 176 -31 182 -27 180 -30 z "},"":{"ha":244,"x_min":0,"x_max":0,"o":"m 87 1168 b 87 1156 84 1164 84 1160 l 130 1113 b 142 1113 134 1109 138 1109 l 155 1126 b 155 1138 159 1130 159 1134 l 112 1181 b 100 1181 108 1185 104 1185 z m 175 -31 b 72 -85 134 -36 100 -54 b 66 -86 70 -87 68 -87 b 63 -81 64 -85 63 -83 l 63 571 b 100 665 63 607 75 638 b 192 708 125 691 156 706 b 200 715 197 708 200 711 l 200 735 b 192 743 200 740 197 743 b 100 785 156 745 125 759 b 63 879 75 812 63 843 l 63 914 b 66 919 63 917 64 919 b 72 918 68 920 70 920 b 200 863 106 881 149 863 l 206 863 b 217 874 213 863 217 866 l 217 1026 b 210 1033 217 1031 214 1033 l 190 1033 b 182 1026 185 1033 182 1031 l 182 904 b 175 899 182 900 180 898 b 119 922 155 902 136 910 b 79 967 103 934 89 949 b 63 1026 69 985 63 1005 b 56 1033 63 1031 60 1033 l 36 1033 b 28 1026 31 1033 28 1031 l 28 879 b 51 792 28 848 36 819 b 115 731 67 766 88 745 b 118 726 117 730 118 728 b 115 721 118 723 117 722 b 51 658 88 705 67 684 b 28 571 36 631 28 602 l 28 -193 b 36 -200 28 -198 31 -200 l 56 -200 b 63 -193 60 -200 63 -198 b 97 -110 64 -162 76 -134 b 175 -65 119 -86 144 -71 b 182 -71 180 -65 182 -67 l 182 -193 b 190 -200 182 -198 185 -200 l 210 -200 b 217 -193 214 -200 217 -198 l 217 39 b 210 47 217 44 214 47 l 190 47 b 182 39 185 47 182 44 l 182 -24 b 175 -31 182 -27 180 -30 z "},"":{"ha":244,"x_min":0,"x_max":0,"o":"m 143 1181 b 131 1181 139 1184 135 1184 l 88 1138 b 88 1126 84 1134 84 1130 l 101 1113 b 113 1113 105 1109 109 1109 l 156 1156 b 156 1168 160 1160 160 1164 z m 175 -31 b 72 -85 134 -36 100 -54 b 66 -86 70 -87 68 -87 b 63 -81 64 -85 63 -83 l 63 571 b 100 665 63 607 75 638 b 192 708 125 691 156 706 b 200 715 197 708 200 711 l 200 735 b 192 743 200 740 197 743 b 100 785 156 745 125 759 b 63 879 75 812 63 843 l 63 914 b 66 919 63 917 64 919 b 72 918 68 920 70 920 b 200 863 106 881 149 863 l 206 863 b 217 874 213 863 217 866 l 217 1026 b 210 1033 217 1031 214 1033 l 190 1033 b 182 1026 185 1033 182 1031 l 182 904 b 175 899 182 900 180 898 b 119 922 155 902 136 910 b 79 967 103 934 89 949 b 63 1026 69 985 63 1005 b 56 1033 63 1031 60 1033 l 36 1033 b 28 1026 31 1033 28 1031 l 28 879 b 51 792 28 848 36 819 b 115 731 67 766 88 745 b 118 726 117 730 118 728 b 115 721 118 723 117 722 b 51 658 88 705 67 684 b 28 571 36 631 28 602 l 28 -193 b 36 -200 28 -198 31 -200 l 56 -200 b 63 -193 60 -200 63 -198 b 97 -110 64 -162 76 -134 b 175 -65 119 -86 144 -71 b 182 -71 180 -65 182 -67 l 182 -193 b 190 -200 182 -198 185 -200 l 210 -200 b 217 -193 214 -200 217 -198 l 217 39 b 210 47 217 44 214 47 l 190 47 b 182 39 185 47 182 44 l 182 -24 b 175 -31 182 -27 180 -30 z "},"":{"ha":244,"x_min":0,"x_max":0,"o":"m 57 1139 b 57 1128 53 1135 53 1131 l 71 1114 b 82 1114 75 1110 78 1110 l 113 1144 b 124 1144 116 1148 120 1148 l 154 1114 b 165 1114 158 1110 162 1110 l 179 1128 b 179 1139 183 1131 183 1135 l 126 1192 b 110 1192 121 1197 115 1197 z m 175 -31 b 72 -85 134 -36 100 -54 b 66 -86 70 -87 68 -87 b 63 -81 64 -85 63 -83 l 63 571 b 100 665 63 607 75 638 b 192 708 125 691 156 706 b 200 715 197 708 200 711 l 200 735 b 192 743 200 740 197 743 b 100 785 156 745 125 759 b 63 879 75 812 63 843 l 63 914 b 66 919 63 917 64 919 b 72 918 68 920 70 920 b 200 863 106 881 149 863 l 206 863 b 217 874 213 863 217 866 l 217 1026 b 210 1033 217 1031 214 1033 l 190 1033 b 182 1026 185 1033 182 1031 l 182 904 b 175 899 182 900 180 898 b 119 922 155 902 136 910 b 79 967 103 934 89 949 b 63 1026 69 985 63 1005 b 56 1033 63 1031 60 1033 l 36 1033 b 28 1026 31 1033 28 1031 l 28 879 b 51 792 28 848 36 819 b 115 731 67 766 88 745 b 118 726 117 730 118 728 b 115 721 118 723 117 722 b 51 658 88 705 67 684 b 28 571 36 631 28 602 l 28 -193 b 36 -200 28 -198 31 -200 l 56 -200 b 63 -193 60 -200 63 -198 b 97 -110 64 -162 76 -134 b 175 -65 119 -86 144 -71 b 182 -71 180 -65 182 -67 l 182 -193 b 190 -200 182 -198 185 -200 l 210 -200 b 217 -193 214 -200 217 -198 l 217 39 b 210 47 217 44 214 47 l 190 47 b 182 39 185 47 182 44 l 182 -24 b 175 -31 182 -27 180 -30 z "},"":{"ha":90,"x_min":0,"x_max":0,"o":"m 12 1168 b 12 1156 9 1164 9 1160 l 55 1113 b 67 1113 59 1109 63 1109 l 80 1126 b 80 1138 84 1130 84 1134 l 37 1181 b 25 1181 33 1185 29 1185 z m 63 -193 l 63 1026 b 54 1033 63 1031 60 1033 l 36 1033 b 28 1026 31 1033 28 1031 l 28 -193 b 36 -201 28 -199 31 -201 l 54 -201 b 63 -193 60 -201 63 -199 z "},"":{"ha":90,"x_min":0,"x_max":0,"o":"m 64 1181 b 52 1181 60 1184 56 1184 l 9 1138 b 9 1126 5 1134 5 1130 l 22 1113 b 34 1113 26 1109 30 1109 l 76 1156 b 76 1168 80 1160 80 1164 z m 63 -193 l 63 1026 b 54 1033 63 1031 60 1033 l 36 1033 b 28 1026 31 1033 28 1031 l 28 -193 b 36 -201 28 -199 31 -201 l 54 -201 b 63 -193 60 -201 63 -199 z "},"":{"ha":244,"x_min":0,"x_max":0,"o":"m 83 1168 b 83 1156 80 1164 80 1160 l 126 1113 b 138 1113 130 1109 134 1109 l 151 1126 b 151 1138 155 1130 155 1134 l 108 1181 b 96 1181 104 1185 100 1185 z m 63 936 l 63 1026 b 54 1035 63 1032 60 1035 l 36 1035 b 28 1026 31 1035 28 1032 l 28 -193 b 35 -204 28 -198 30 -201 l 50 -210 b 63 -207 55 -212 59 -211 l 172 -99 b 178 -97 174 -97 176 -96 b 182 -103 181 -98 182 -100 l 182 -193 b 190 -200 182 -198 185 -200 l 210 -200 b 217 -193 214 -200 217 -198 l 217 1026 b 210 1038 217 1032 214 1036 l 194 1043 b 182 1040 190 1045 186 1044 l 72 932 b 66 931 70 930 68 930 b 63 936 64 931 63 933 z m 63 -144 l 63 863 b 69 879 63 869 65 875 l 172 982 b 178 983 174 984 176 984 b 182 978 181 982 182 981 l 182 -29 b 175 -46 182 -36 180 -41 l 72 -149 b 66 -150 70 -150 68 -151 b 63 -144 64 -149 63 -147 z "},"":{"ha":244,"x_min":0,"x_max":0,"o":"m 139 1181 b 127 1181 135 1184 131 1184 l 84 1138 b 84 1126 80 1134 80 1130 l 97 1113 b 109 1113 101 1109 105 1109 l 151 1156 b 151 1168 155 1160 155 1164 z m 63 936 l 63 1026 b 54 1035 63 1032 60 1035 l 36 1035 b 28 1026 31 1035 28 1032 l 28 -193 b 35 -204 28 -198 30 -201 l 50 -210 b 63 -207 55 -212 59 -211 l 172 -99 b 178 -97 174 -97 176 -96 b 182 -103 181 -98 182 -100 l 182 -193 b 190 -200 182 -198 185 -200 l 210 -200 b 217 -193 214 -200 217 -198 l 217 1026 b 210 1038 217 1032 214 1036 l 194 1043 b 182 1040 190 1045 186 1044 l 72 932 b 66 931 70 930 68 930 b 63 936 64 931 63 933 z m 63 -144 l 63 863 b 69 879 63 869 65 875 l 172 982 b 178 983 174 984 176 984 b 182 978 181 982 182 981 l 182 -29 b 175 -46 182 -36 180 -41 l 72 -149 b 66 -150 70 -150 68 -151 b 63 -144 64 -149 63 -147 z "},"":{"ha":244,"x_min":0,"x_max":0,"o":"m 57 1139 b 57 1128 53 1135 53 1131 l 71 1114 b 82 1114 75 1110 78 1110 l 113 1144 b 124 1144 116 1148 120 1148 l 154 1114 b 165 1114 158 1110 162 1110 l 179 1128 b 179 1139 183 1131 183 1135 l 126 1192 b 110 1192 121 1197 115 1197 z m 63 936 l 63 1026 b 54 1035 63 1032 60 1035 l 36 1035 b 28 1026 31 1035 28 1032 l 28 -193 b 35 -204 28 -198 30 -201 l 50 -210 b 63 -207 55 -212 59 -211 l 172 -99 b 178 -97 174 -97 176 -96 b 182 -103 181 -98 182 -100 l 182 -193 b 190 -200 182 -198 185 -200 l 210 -200 b 217 -193 214 -200 217 -198 l 217 1026 b 210 1038 217 1032 214 1036 l 194 1043 b 182 1040 190 1045 186 1044 l 72 932 b 66 931 70 930 68 930 b 63 936 64 931 63 933 z m 63 -144 l 63 863 b 69 879 63 869 65 875 l 172 982 b 178 983 174 984 176 984 b 182 978 181 982 182 981 l 182 -29 b 175 -46 182 -36 180 -41 l 72 -149 b 66 -150 70 -150 68 -151 b 63 -144 64 -149 63 -147 z "},"":{"ha":244,"x_min":0,"x_max":0,"o":"m 157 1137 b 149 1145 157 1142 154 1145 l 88 1145 b 80 1137 82 1145 79 1142 l 80 1119 b 88 1110 80 1113 82 1110 l 149 1110 b 157 1119 154 1110 157 1113 z m 63 936 l 63 1026 b 54 1035 63 1032 60 1035 l 36 1035 b 28 1026 31 1035 28 1032 l 28 -193 b 35 -204 28 -198 30 -201 l 50 -210 b 63 -207 55 -212 59 -211 l 172 -99 b 178 -97 174 -97 176 -96 b 182 -103 181 -98 182 -100 l 182 -193 b 190 -200 182 -198 185 -200 l 210 -200 b 217 -193 214 -200 217 -198 l 217 1026 b 210 1038 217 1032 214 1036 l 194 1043 b 182 1040 190 1045 186 1044 l 72 932 b 66 931 70 930 68 930 b 63 936 64 931 63 933 z m 63 -144 l 63 863 b 69 879 63 869 65 875 l 172 982 b 178 983 174 984 176 984 b 182 978 181 982 182 981 l 182 -29 b 175 -46 182 -36 180 -41 l 72 -149 b 66 -150 70 -150 68 -151 b 63 -144 64 -149 63 -147 z "},"":{"ha":244,"x_min":0,"x_max":0,"o":"m 83 1168 b 83 1156 80 1164 80 1160 l 126 1113 b 138 1113 130 1109 134 1109 l 151 1126 b 151 1138 155 1130 155 1134 l 108 1181 b 96 1181 104 1185 100 1185 z m 175 -31 b 119 -49 156 -33 137 -39 b 72 -85 102 -58 86 -70 b 66 -86 70 -87 68 -87 b 63 -82 64 -85 63 -84 l 63 1026 b 54 1033 63 1031 60 1033 l 36 1033 b 28 1026 31 1033 28 1031 l 28 -193 b 36 -200 28 -198 31 -200 l 56 -200 b 63 -193 60 -200 63 -198 b 97 -110 64 -162 76 -134 b 175 -65 119 -86 144 -71 b 182 -72 180 -65 182 -68 l 182 -193 b 190 -200 182 -198 185 -200 l 210 -200 b 217 -193 214 -200 217 -198 l 217 1026 b 210 1033 217 1031 214 1033 l 190 1033 b 182 1026 185 1033 182 1031 l 182 -24 b 175 -31 182 -27 180 -30 z "},"":{"ha":244,"x_min":0,"x_max":0,"o":"m 139 1181 b 127 1181 135 1184 131 1184 l 84 1138 b 84 1126 80 1134 80 1130 l 97 1113 b 109 1113 101 1109 105 1109 l 151 1156 b 151 1168 155 1160 155 1164 z m 175 -31 b 119 -49 156 -33 137 -39 b 72 -85 102 -58 86 -70 b 66 -86 70 -87 68 -87 b 63 -82 64 -85 63 -84 l 63 1026 b 54 1033 63 1031 60 1033 l 36 1033 b 28 1026 31 1033 28 1031 l 28 -193 b 36 -200 28 -198 31 -200 l 56 -200 b 63 -193 60 -200 63 -198 b 97 -110 64 -162 76 -134 b 175 -65 119 -86 144 -71 b 182 -72 180 -65 182 -68 l 182 -193 b 190 -200 182 -198 185 -200 l 210 -200 b 217 -193 214 -200 217 -198 l 217 1026 b 210 1033 217 1031 214 1033 l 190 1033 b 182 1026 185 1033 182 1031 l 182 -24 b 175 -31 182 -27 180 -30 z "},"":{"ha":244,"x_min":0,"x_max":0,"o":"m 57 1139 b 57 1128 53 1135 53 1131 l 71 1114 b 82 1114 75 1110 78 1110 l 113 1144 b 124 1144 116 1148 120 1148 l 154 1114 b 165 1114 158 1110 162 1110 l 179 1128 b 179 1139 183 1131 183 1135 l 126 1192 b 110 1192 121 1197 115 1197 z m 175 -31 b 119 -49 156 -33 137 -39 b 72 -85 102 -58 86 -70 b 66 -86 70 -87 68 -87 b 63 -82 64 -85 63 -84 l 63 1026 b 54 1033 63 1031 60 1033 l 36 1033 b 28 1026 31 1033 28 1031 l 28 -193 b 36 -200 28 -198 31 -200 l 56 -200 b 63 -193 60 -200 63 -198 b 97 -110 64 -162 76 -134 b 175 -65 119 -86 144 -71 b 182 -72 180 -65 182 -68 l 182 -193 b 190 -200 182 -198 185 -200 l 210 -200 b 217 -193 214 -200 217 -198 l 217 1026 b 210 1033 217 1031 214 1033 l 190 1033 b 182 1026 185 1033 182 1031 l 182 -24 b 175 -31 182 -27 180 -30 z "},"":{"ha":244,"x_min":0,"x_max":0,"o":"m 157 1137 b 149 1145 157 1142 154 1145 l 88 1145 b 80 1137 82 1145 79 1142 l 80 1119 b 88 1110 80 1113 82 1110 l 149 1110 b 157 1119 154 1110 157 1113 z m 175 -31 b 119 -49 156 -33 137 -39 b 72 -85 102 -58 86 -70 b 66 -86 70 -87 68 -87 b 63 -82 64 -85 63 -84 l 63 1026 b 54 1033 63 1031 60 1033 l 36 1033 b 28 1026 31 1033 28 1031 l 28 -193 b 36 -200 28 -198 31 -200 l 56 -200 b 63 -193 60 -200 63 -198 b 97 -110 64 -162 76 -134 b 175 -65 119 -86 144 -71 b 182 -72 180 -65 182 -68 l 182 -193 b 190 -200 182 -198 185 -200 l 210 -200 b 217 -193 214 -200 217 -198 l 217 1026 b 210 1033 217 1031 214 1033 l 190 1033 b 182 1026 185 1033 182 1031 l 182 -24 b 175 -31 182 -27 180 -30 z "},"":{"ha":236,"x_min":0,"x_max":0,"o":"m 83 1168 b 83 1156 80 1164 80 1160 l 126 1113 b 138 1113 130 1109 134 1109 l 151 1126 b 151 1138 155 1130 155 1134 l 108 1181 b 96 1181 104 1185 100 1185 z m 203 -6 l 201 -6 b 200 -4 200 -6 200 -5 l 135 1026 b 126 1035 135 1032 132 1035 l 111 1035 b 103 1026 106 1035 103 1032 l 21 -193 b 25 -201 21 -197 22 -200 l 42 -208 b 51 -207 45 -210 49 -210 l 165 -89 b 171 -87 166 -87 168 -87 b 175 -93 174 -88 175 -90 l 181 -193 b 189 -201 181 -199 184 -201 l 204 -201 b 211 -193 210 -201 212 -199 l 203 -53 b 206 -47 203 -51 204 -49 l 221 -31 b 221 -21 225 -27 225 -24 l 206 -6 b 203 -6 205 -5 204 -5 z m 56 -143 l 114 738 b 119 740 115 739 116 740 b 122 738 121 740 122 739 l 171 -35 b 169 -40 171 -37 170 -38 l 65 -147 b 59 -149 63 -149 61 -150 b 56 -143 57 -148 56 -146 z "},"":{"ha":236,"x_min":0,"x_max":0,"o":"m 139 1181 b 127 1181 135 1184 131 1184 l 84 1138 b 84 1126 80 1134 80 1130 l 97 1113 b 109 1113 101 1109 105 1109 l 151 1156 b 151 1168 155 1160 155 1164 z m 203 -6 l 201 -6 b 200 -4 200 -6 200 -5 l 135 1026 b 126 1035 135 1032 132 1035 l 111 1035 b 103 1026 106 1035 103 1032 l 21 -193 b 25 -201 21 -197 22 -200 l 42 -208 b 51 -207 45 -210 49 -210 l 165 -89 b 171 -87 166 -87 168 -87 b 175 -93 174 -88 175 -90 l 181 -193 b 189 -201 181 -199 184 -201 l 204 -201 b 211 -193 210 -201 212 -199 l 203 -53 b 206 -47 203 -51 204 -49 l 221 -31 b 221 -21 225 -27 225 -24 l 206 -6 b 203 -6 205 -5 204 -5 z m 56 -143 l 114 738 b 119 740 115 739 116 740 b 122 738 121 740 122 739 l 171 -35 b 169 -40 171 -37 170 -38 l 65 -147 b 59 -149 63 -149 61 -150 b 56 -143 57 -148 56 -146 z "},"":{"ha":236,"x_min":0,"x_max":0,"o":"m 57 1139 b 57 1128 53 1135 53 1131 l 71 1114 b 82 1114 75 1110 78 1110 l 113 1144 b 124 1144 116 1148 120 1148 l 154 1114 b 165 1114 158 1110 162 1110 l 179 1128 b 179 1139 183 1131 183 1135 l 126 1192 b 110 1192 121 1197 115 1197 z m 203 -6 l 201 -6 b 200 -4 200 -6 200 -5 l 135 1026 b 126 1035 135 1032 132 1035 l 111 1035 b 103 1026 106 1035 103 1032 l 21 -193 b 25 -201 21 -197 22 -200 l 42 -208 b 51 -207 45 -210 49 -210 l 165 -89 b 171 -87 166 -87 168 -87 b 175 -93 174 -88 175 -90 l 181 -193 b 189 -201 181 -199 184 -201 l 204 -201 b 211 -193 210 -201 212 -199 l 203 -53 b 206 -47 203 -51 204 -49 l 221 -31 b 221 -21 225 -27 225 -24 l 206 -6 b 203 -6 205 -5 204 -5 z m 56 -143 l 114 738 b 119 740 115 739 116 740 b 122 738 121 740 122 739 l 171 -35 b 169 -40 171 -37 170 -38 l 65 -147 b 59 -149 63 -149 61 -150 b 56 -143 57 -148 56 -146 z "},"":{"ha":236,"x_min":0,"x_max":0,"o":"m 157 1137 b 149 1145 157 1142 154 1145 l 88 1145 b 80 1137 82 1145 79 1142 l 80 1119 b 88 1110 80 1113 82 1110 l 149 1110 b 157 1119 154 1110 157 1113 z m 203 -6 l 201 -6 b 200 -4 200 -6 200 -5 l 135 1026 b 126 1035 135 1032 132 1035 l 111 1035 b 103 1026 106 1035 103 1032 l 21 -193 b 25 -201 21 -197 22 -200 l 42 -208 b 51 -207 45 -210 49 -210 l 165 -89 b 171 -87 166 -87 168 -87 b 175 -93 174 -88 175 -90 l 181 -193 b 189 -201 181 -199 184 -201 l 204 -201 b 211 -193 210 -201 212 -199 l 203 -53 b 206 -47 203 -51 204 -49 l 221 -31 b 221 -21 225 -27 225 -24 l 206 -6 b 203 -6 205 -5 204 -5 z m 56 -143 l 114 738 b 119 740 115 739 116 740 b 122 738 121 740 122 739 l 171 -35 b 169 -40 171 -37 170 -38 l 65 -147 b 59 -149 63 -149 61 -150 b 56 -143 57 -148 56 -146 z "},"":{"ha":244,"x_min":0,"x_max":0,"o":"m 161 -285 b 153 -277 161 -280 158 -278 l 92 -277 b 84 -285 86 -277 84 -280 l 84 -304 b 92 -312 84 -309 86 -312 l 153 -312 b 161 -303 158 -312 161 -309 z m 176 -31 b 72 -85 135 -36 100 -54 b 66 -86 70 -87 68 -87 b 63 -82 64 -85 63 -84 l 63 915 b 66 920 63 917 64 919 b 72 918 68 922 70 921 b 200 863 106 881 149 863 l 206 863 b 217 874 213 863 217 866 l 217 1026 b 210 1035 217 1032 214 1035 l 190 1035 b 182 1026 185 1035 182 1032 l 182 906 b 175 899 182 901 180 899 b 97 943 144 904 119 919 b 63 1026 76 967 64 995 b 56 1035 63 1032 60 1035 l 36 1035 b 28 1026 31 1035 28 1032 l 28 -193 b 36 -200 28 -198 31 -200 l 56 -200 b 63 -193 60 -200 63 -198 b 97 -110 64 -162 76 -134 b 175 -65 119 -86 144 -71 b 182 -71 180 -64 182 -66 l 182 -193 b 190 -200 182 -198 185 -200 l 210 -200 b 217 -193 214 -200 217 -198 l 217 39 b 210 47 217 44 214 47 l 190 47 b 182 39 185 47 182 44 l 182 -22 b 176 -31 182 -27 180 -30 z "},"":{"ha":244,"x_min":0,"x_max":0,"o":"m 87 1168 b 87 1156 84 1164 84 1160 l 130 1113 b 142 1113 134 1109 138 1109 l 155 1126 b 155 1138 159 1130 159 1134 l 112 1181 b 100 1181 108 1185 104 1185 z m 175 -31 b 72 -85 134 -36 100 -54 b 66 -86 70 -87 68 -87 b 63 -81 64 -85 63 -83 l 63 571 b 100 665 63 607 75 638 b 192 708 125 691 156 706 b 200 715 197 708 200 711 l 200 735 b 192 743 200 740 197 743 b 100 785 156 745 125 759 b 63 879 75 812 63 843 l 63 914 b 66 919 63 917 64 919 b 72 918 68 920 70 920 b 200 863 106 881 149 863 l 206 863 b 217 874 213 863 217 866 l 217 1026 b 210 1033 217 1031 214 1033 l 190 1033 b 182 1026 185 1033 182 1031 l 182 904 b 175 899 182 900 180 898 b 119 922 155 902 136 910 b 79 967 103 934 89 949 b 63 1026 69 985 63 1005 b 56 1033 63 1031 60 1033 l 36 1033 b 28 1026 31 1033 28 1031 l 28 879 b 51 792 28 848 36 819 b 115 731 67 766 88 745 b 118 726 117 730 118 728 b 115 721 118 723 117 722 b 51 658 88 705 67 684 b 28 571 36 631 28 602 l 28 -193 b 36 -200 28 -198 31 -200 l 56 -200 b 63 -193 60 -200 63 -198 b 97 -110 64 -162 76 -134 b 175 -65 119 -86 144 -71 b 182 -71 180 -65 182 -67 l 182 -193 b 190 -200 182 -198 185 -200 l 210 -200 b 217 -193 214 -200 217 -198 l 217 39 b 210 47 217 44 214 47 l 190 47 b 182 39 185 47 182 44 l 182 -24 b 175 -31 182 -27 180 -30 z "},"":{"ha":244,"x_min":0,"x_max":0,"o":"m 143 1181 b 131 1181 139 1184 135 1184 l 88 1138 b 88 1126 84 1134 84 1130 l 101 1113 b 113 1113 105 1109 109 1109 l 156 1156 b 156 1168 160 1160 160 1164 z m 175 -31 b 72 -85 134 -36 100 -54 b 66 -86 70 -87 68 -87 b 63 -81 64 -85 63 -83 l 63 571 b 100 665 63 607 75 638 b 192 708 125 691 156 706 b 200 715 197 708 200 711 l 200 735 b 192 743 200 740 197 743 b 100 785 156 745 125 759 b 63 879 75 812 63 843 l 63 914 b 66 919 63 917 64 919 b 72 918 68 920 70 920 b 200 863 106 881 149 863 l 206 863 b 217 874 213 863 217 866 l 217 1026 b 210 1033 217 1031 214 1033 l 190 1033 b 182 1026 185 1033 182 1031 l 182 904 b 175 899 182 900 180 898 b 119 922 155 902 136 910 b 79 967 103 934 89 949 b 63 1026 69 985 63 1005 b 56 1033 63 1031 60 1033 l 36 1033 b 28 1026 31 1033 28 1031 l 28 879 b 51 792 28 848 36 819 b 115 731 67 766 88 745 b 118 726 117 730 118 728 b 115 721 118 723 117 722 b 51 658 88 705 67 684 b 28 571 36 631 28 602 l 28 -193 b 36 -200 28 -198 31 -200 l 56 -200 b 63 -193 60 -200 63 -198 b 97 -110 64 -162 76 -134 b 175 -65 119 -86 144 -71 b 182 -71 180 -65 182 -67 l 182 -193 b 190 -200 182 -198 185 -200 l 210 -200 b 217 -193 214 -200 217 -198 l 217 39 b 210 47 217 44 214 47 l 190 47 b 182 39 185 47 182 44 l 182 -24 b 175 -31 182 -27 180 -30 z "},"":{"ha":244,"x_min":0,"x_max":0,"o":"m 57 1139 b 57 1128 53 1135 53 1131 l 71 1114 b 82 1114 75 1110 78 1110 l 113 1144 b 124 1144 116 1148 120 1148 l 154 1114 b 165 1114 158 1110 162 1110 l 179 1128 b 179 1139 183 1131 183 1135 l 126 1192 b 110 1192 121 1197 115 1197 z m 175 -31 b 72 -85 134 -36 100 -54 b 66 -86 70 -87 68 -87 b 63 -81 64 -85 63 -83 l 63 571 b 100 665 63 607 75 638 b 192 708 125 691 156 706 b 200 715 197 708 200 711 l 200 735 b 192 743 200 740 197 743 b 100 785 156 745 125 759 b 63 879 75 812 63 843 l 63 914 b 66 919 63 917 64 919 b 72 918 68 920 70 920 b 200 863 106 881 149 863 l 206 863 b 217 874 213 863 217 866 l 217 1026 b 210 1033 217 1031 214 1033 l 190 1033 b 182 1026 185 1033 182 1031 l 182 904 b 175 899 182 900 180 898 b 119 922 155 902 136 910 b 79 967 103 934 89 949 b 63 1026 69 985 63 1005 b 56 1033 63 1031 60 1033 l 36 1033 b 28 1026 31 1033 28 1031 l 28 879 b 51 792 28 848 36 819 b 115 731 67 766 88 745 b 118 726 117 730 118 728 b 115 721 118 723 117 722 b 51 658 88 705 67 684 b 28 571 36 631 28 602 l 28 -193 b 36 -200 28 -198 31 -200 l 56 -200 b 63 -193 60 -200 63 -198 b 97 -110 64 -162 76 -134 b 175 -65 119 -86 144 -71 b 182 -71 180 -65 182 -67 l 182 -193 b 190 -200 182 -198 185 -200 l 210 -200 b 217 -193 214 -200 217 -198 l 217 39 b 210 47 217 44 214 47 l 190 47 b 182 39 185 47 182 44 l 182 -24 b 175 -31 182 -27 180 -30 z "},"":{"ha":90,"x_min":0,"x_max":0,"o":"m 12 1168 b 12 1156 9 1164 9 1160 l 55 1113 b 67 1113 59 1109 63 1109 l 80 1126 b 80 1138 84 1130 84 1134 l 37 1181 b 25 1181 33 1185 29 1185 z m 63 -193 l 63 1026 b 54 1033 63 1031 60 1033 l 36 1033 b 28 1026 31 1033 28 1031 l 28 -193 b 36 -201 28 -199 31 -201 l 54 -201 b 63 -193 60 -201 63 -199 z "},"":{"ha":90,"x_min":0,"x_max":0,"o":"m 64 1181 b 52 1181 60 1184 56 1184 l 9 1138 b 9 1126 5 1134 5 1130 l 22 1113 b 34 1113 26 1109 30 1109 l 76 1156 b 76 1168 80 1160 80 1164 z m 63 -193 l 63 1026 b 54 1033 63 1031 60 1033 l 36 1033 b 28 1026 31 1033 28 1031 l 28 -193 b 36 -201 28 -199 31 -201 l 54 -201 b 63 -193 60 -201 63 -199 z "},"":{"ha":244,"x_min":0,"x_max":0,"o":"m 83 1168 b 83 1156 80 1164 80 1160 l 126 1113 b 138 1113 130 1109 134 1109 l 151 1126 b 151 1138 155 1130 155 1134 l 108 1181 b 96 1181 104 1185 100 1185 z m 63 936 l 63 1026 b 54 1035 63 1032 60 1035 l 36 1035 b 28 1026 31 1035 28 1032 l 28 -193 b 35 -204 28 -198 30 -201 l 50 -210 b 63 -207 55 -212 59 -211 l 172 -99 b 178 -97 174 -97 176 -96 b 182 -103 181 -98 182 -100 l 182 -193 b 190 -200 182 -198 185 -200 l 210 -200 b 217 -193 214 -200 217 -198 l 217 1026 b 210 1038 217 1032 214 1036 l 194 1043 b 182 1040 190 1045 186 1044 l 72 932 b 66 931 70 930 68 930 b 63 936 64 931 63 933 z m 63 -144 l 63 863 b 69 879 63 869 65 875 l 172 982 b 178 983 174 984 176 984 b 182 978 181 982 182 981 l 182 -29 b 175 -46 182 -36 180 -41 l 72 -149 b 66 -150 70 -150 68 -151 b 63 -144 64 -149 63 -147 z "},"":{"ha":244,"x_min":0,"x_max":0,"o":"m 139 1181 b 127 1181 135 1184 131 1184 l 84 1138 b 84 1126 80 1134 80 1130 l 97 1113 b 109 1113 101 1109 105 1109 l 151 1156 b 151 1168 155 1160 155 1164 z m 63 936 l 63 1026 b 54 1035 63 1032 60 1035 l 36 1035 b 28 1026 31 1035 28 1032 l 28 -193 b 35 -204 28 -198 30 -201 l 50 -210 b 63 -207 55 -212 59 -211 l 172 -99 b 178 -97 174 -97 176 -96 b 182 -103 181 -98 182 -100 l 182 -193 b 190 -200 182 -198 185 -200 l 210 -200 b 217 -193 214 -200 217 -198 l 217 1026 b 210 1038 217 1032 214 1036 l 194 1043 b 182 1040 190 1045 186 1044 l 72 932 b 66 931 70 930 68 930 b 63 936 64 931 63 933 z m 63 -144 l 63 863 b 69 879 63 869 65 875 l 172 982 b 178 983 174 984 176 984 b 182 978 181 982 182 981 l 182 -29 b 175 -46 182 -36 180 -41 l 72 -149 b 66 -150 70 -150 68 -151 b 63 -144 64 -149 63 -147 z "},"":{"ha":244,"x_min":0,"x_max":0,"o":"m 57 1139 b 57 1128 53 1135 53 1131 l 71 1114 b 82 1114 75 1110 78 1110 l 113 1144 b 124 1144 116 1148 120 1148 l 154 1114 b 165 1114 158 1110 162 1110 l 179 1128 b 179 1139 183 1131 183 1135 l 126 1192 b 110 1192 121 1197 115 1197 z m 63 936 l 63 1026 b 54 1035 63 1032 60 1035 l 36 1035 b 28 1026 31 1035 28 1032 l 28 -193 b 35 -204 28 -198 30 -201 l 50 -210 b 63 -207 55 -212 59 -211 l 172 -99 b 178 -97 174 -97 176 -96 b 182 -103 181 -98 182 -100 l 182 -193 b 190 -200 182 -198 185 -200 l 210 -200 b 217 -193 214 -200 217 -198 l 217 1026 b 210 1038 217 1032 214 1036 l 194 1043 b 182 1040 190 1045 186 1044 l 72 932 b 66 931 70 930 68 930 b 63 936 64 931 63 933 z m 63 -144 l 63 863 b 69 879 63 869 65 875 l 172 982 b 178 983 174 984 176 984 b 182 978 181 982 182 981 l 182 -29 b 175 -46 182 -36 180 -41 l 72 -149 b 66 -150 70 -150 68 -151 b 63 -144 64 -149 63 -147 z "},"":{"ha":244,"x_min":0,"x_max":0,"o":"m 157 1137 b 149 1145 157 1142 154 1145 l 88 1145 b 80 1137 82 1145 79 1142 l 80 1119 b 88 1110 80 1113 82 1110 l 149 1110 b 157 1119 154 1110 157 1113 z m 63 936 l 63 1026 b 54 1035 63 1032 60 1035 l 36 1035 b 28 1026 31 1035 28 1032 l 28 -193 b 35 -204 28 -198 30 -201 l 50 -210 b 63 -207 55 -212 59 -211 l 172 -99 b 178 -97 174 -97 176 -96 b 182 -103 181 -98 182 -100 l 182 -193 b 190 -200 182 -198 185 -200 l 210 -200 b 217 -193 214 -200 217 -198 l 217 1026 b 210 1038 217 1032 214 1036 l 194 1043 b 182 1040 190 1045 186 1044 l 72 932 b 66 931 70 930 68 930 b 63 936 64 931 63 933 z m 63 -144 l 63 863 b 69 879 63 869 65 875 l 172 982 b 178 983 174 984 176 984 b 182 978 181 982 182 981 l 182 -29 b 175 -46 182 -36 180 -41 l 72 -149 b 66 -150 70 -150 68 -151 b 63 -144 64 -149 63 -147 z "},"":{"ha":244,"x_min":0,"x_max":0,"o":"m 83 1168 b 83 1156 80 1164 80 1160 l 126 1113 b 138 1113 130 1109 134 1109 l 151 1126 b 151 1138 155 1130 155 1134 l 108 1181 b 96 1181 104 1185 100 1185 z m 175 -31 b 119 -49 156 -33 137 -39 b 72 -85 102 -58 86 -70 b 66 -86 70 -87 68 -87 b 63 -82 64 -85 63 -84 l 63 1026 b 54 1033 63 1031 60 1033 l 36 1033 b 28 1026 31 1033 28 1031 l 28 -193 b 36 -200 28 -198 31 -200 l 56 -200 b 63 -193 60 -200 63 -198 b 97 -110 64 -162 76 -134 b 175 -65 119 -86 144 -71 b 182 -72 180 -65 182 -68 l 182 -193 b 190 -200 182 -198 185 -200 l 210 -200 b 217 -193 214 -200 217 -198 l 217 1026 b 210 1033 217 1031 214 1033 l 190 1033 b 182 1026 185 1033 182 1031 l 182 -24 b 175 -31 182 -27 180 -30 z "},"":{"ha":244,"x_min":0,"x_max":0,"o":"m 139 1181 b 127 1181 135 1184 131 1184 l 84 1138 b 84 1126 80 1134 80 1130 l 97 1113 b 109 1113 101 1109 105 1109 l 151 1156 b 151 1168 155 1160 155 1164 z m 175 -31 b 119 -49 156 -33 137 -39 b 72 -85 102 -58 86 -70 b 66 -86 70 -87 68 -87 b 63 -82 64 -85 63 -84 l 63 1026 b 54 1033 63 1031 60 1033 l 36 1033 b 28 1026 31 1033 28 1031 l 28 -193 b 36 -200 28 -198 31 -200 l 56 -200 b 63 -193 60 -200 63 -198 b 97 -110 64 -162 76 -134 b 175 -65 119 -86 144 -71 b 182 -72 180 -65 182 -68 l 182 -193 b 190 -200 182 -198 185 -200 l 210 -200 b 217 -193 214 -200 217 -198 l 217 1026 b 210 1033 217 1031 214 1033 l 190 1033 b 182 1026 185 1033 182 1031 l 182 -24 b 175 -31 182 -27 180 -30 z "},"":{"ha":244,"x_min":0,"x_max":0,"o":"m 57 1139 b 57 1128 53 1135 53 1131 l 71 1114 b 82 1114 75 1110 78 1110 l 113 1144 b 124 1144 116 1148 120 1148 l 154 1114 b 165 1114 158 1110 162 1110 l 179 1128 b 179 1139 183 1131 183 1135 l 126 1192 b 110 1192 121 1197 115 1197 z m 175 -31 b 119 -49 156 -33 137 -39 b 72 -85 102 -58 86 -70 b 66 -86 70 -87 68 -87 b 63 -82 64 -85 63 -84 l 63 1026 b 54 1033 63 1031 60 1033 l 36 1033 b 28 1026 31 1033 28 1031 l 28 -193 b 36 -200 28 -198 31 -200 l 56 -200 b 63 -193 60 -200 63 -198 b 97 -110 64 -162 76 -134 b 175 -65 119 -86 144 -71 b 182 -72 180 -65 182 -68 l 182 -193 b 190 -200 182 -198 185 -200 l 210 -200 b 217 -193 214 -200 217 -198 l 217 1026 b 210 1033 217 1031 214 1033 l 190 1033 b 182 1026 185 1033 182 1031 l 182 -24 b 175 -31 182 -27 180 -30 z "},"":{"ha":244,"x_min":0,"x_max":0,"o":"m 157 1137 b 149 1145 157 1142 154 1145 l 88 1145 b 80 1137 82 1145 79 1142 l 80 1119 b 88 1110 80 1113 82 1110 l 149 1110 b 157 1119 154 1110 157 1113 z m 175 -31 b 119 -49 156 -33 137 -39 b 72 -85 102 -58 86 -70 b 66 -86 70 -87 68 -87 b 63 -82 64 -85 63 -84 l 63 1026 b 54 1033 63 1031 60 1033 l 36 1033 b 28 1026 31 1033 28 1031 l 28 -193 b 36 -200 28 -198 31 -200 l 56 -200 b 63 -193 60 -200 63 -198 b 97 -110 64 -162 76 -134 b 175 -65 119 -86 144 -71 b 182 -72 180 -65 182 -68 l 182 -193 b 190 -200 182 -198 185 -200 l 210 -200 b 217 -193 214 -200 217 -198 l 217 1026 b 210 1033 217 1031 214 1033 l 190 1033 b 182 1026 185 1033 182 1031 l 182 -24 b 175 -31 182 -27 180 -30 z "}}}
